<?xml version="1.0" standalone="no"?>
<!DOCTYPE svg PUBLIC "-//W3C//DTD SVG 20010904//EN"
 "http://www.w3.org/TR/2001/REC-SVG-20010904/DTD/svg10.dtd">
<svg version="1.0" xmlns="http://www.w3.org/2000/svg"
 width="1024.000000pt" height="1024.000000pt" viewBox="0 0 1024.000000 1024.000000"
 preserveAspectRatio="xMidYMid meet">

<g transform="translate(0.000000,1024.000000) scale(0.100000,-0.100000)"
fill="#000000" stroke="none">
<path d="M5146 8964 c-4 -14 -5 -28 -3 -31 3 -2 8 9 12 24 7 26 8 26 16 8 8
-19 9 -19 6 -1 -3 30 -24 30 -31 0z"/>
<path d="M5126 8894 c-4 -14 -5 -28 -3 -31 3 -2 8 8 11 23 4 14 5 28 3 31 -3
2 -8 -8 -11 -23z"/>
<path d="M5196 8880 c4 -19 10 -42 15 -50 11 -18 1 34 -13 65 -5 13 -6 9 -2
-15z"/>
<path d="M5106 8833 c-6 -14 -5 -15 5 -6 7 7 10 15 7 18 -3 3 -9 -2 -12 -12z"/>
<path d="M4930 8821 c0 -5 32 -30 70 -57 39 -26 70 -49 70 -50 0 -2 -13 -39
-29 -84 -16 -44 -26 -82 -22 -84 3 -2 38 20 76 49 l69 54 70 -55 c39 -30 72
-50 74 -45 4 13 -18 84 -24 78 -3 -2 0 -17 6 -32 6 -15 9 -29 7 -31 -2 -2 -32
18 -67 46 l-64 49 -33 -24 c-18 -14 -49 -37 -68 -51 -19 -15 -35 -23 -35 -19
0 4 11 39 25 77 14 38 23 73 21 77 -3 4 -34 27 -71 51 l-65 45 77 6 78 5 -82
2 c-46 1 -83 -2 -83 -7z"/>
<path d="M5310 8821 l75 -6 -67 -45 c-37 -25 -67 -52 -67 -60 0 -8 7 -28 15
-45 8 -16 12 -22 9 -12 -19 67 -21 63 54 113 39 26 71 51 71 55 0 5 -37 8 -82
7 l-83 -2 75 -5z"/>
<path d="M4646 8678 l-56 -63 -79 42 c-43 23 -81 40 -84 37 -3 -3 14 -41 37
-85 l41 -79 -65 -59 c-36 -32 -62 -62 -58 -66 3 -3 37 0 75 8 37 8 59 15 48
16 -11 0 -38 -4 -60 -9 -22 -5 -41 -7 -43 -6 -1 2 24 30 57 62 l60 59 -40 69
c-22 38 -38 71 -36 73 2 2 36 -13 76 -34 l71 -38 57 58 c41 43 58 55 64 45 6
-9 9 -6 9 10 0 12 -4 22 -9 22 -5 0 -34 -28 -65 -62z"/>
<path d="M5610 8704 c0 -8 5 -12 11 -9 5 4 34 -19 64 -52 l54 -58 72 38 c39
21 73 36 75 34 2 -1 -13 -36 -34 -76 l-37 -73 64 -57 c44 -40 60 -60 50 -64
-10 -4 -9 -6 4 -6 29 -2 20 13 -45 75 l-62 59 43 78 c23 44 40 81 38 84 -3 2
-40 -15 -84 -38 l-78 -43 -59 62 c-61 64 -76 73 -76 46z"/>
<path d="M4702 8670 c0 -14 2 -19 5 -12 2 6 2 18 0 25 -3 6 -5 1 -5 -13z"/>
<path d="M5622 8660 c0 -14 2 -19 5 -12 2 6 2 18 0 25 -3 6 -5 1 -5 -13z"/>
<path d="M4687 8603 c-4 -21 -3 -41 1 -45 4 -4 8 13 10 38 3 54 -3 58 -11 7z"/>
<path d="M5634 8583 c0 -29 4 -53 9 -53 9 0 7 34 -3 75 -6 24 -7 20 -6 -22z"/>
<path d="M4770 8516 c50 -26 60 -35 45 -39 -15 -3 -13 -5 8 -6 15 0 27 3 27 7
0 8 -124 72 -138 72 -4 -1 22 -16 58 -34z"/>
<path d="M5010 8514 c-266 -70 -451 -303 -454 -574 -2 -181 51 -310 178 -435
125 -124 248 -175 421 -175 190 0 338 69 464 214 83 97 141 255 141 386 0 271
-195 516 -465 585 -74 19 -212 18 -285 -1z m212 -59 c15 -32 28 -32 28 1 0 15
4 23 11 19 11 -8 3 -84 -11 -99 -5 -4 -18 9 -29 30 -19 37 -20 38 -21 12 0
-15 -4 -30 -10 -33 -6 -4 -10 8 -10 29 0 66 21 86 42 41z m-154 3 c7 -7 12
-26 12 -44 0 -27 -5 -34 -32 -43 -36 -13 -43 -7 -53 47 -4 24 -2 38 7 43 19
13 52 11 66 -3z m314 -33 c9 -19 8 -29 -6 -50 -22 -33 -60 -33 -82 0 -15 23
-15 27 0 50 23 35 72 35 88 0z m-431 -26 c47 -37 50 -51 9 -42 -26 5 -30 3
-30 -16 0 -28 -16 -27 -24 2 -8 29 -8 87 0 87 3 0 24 -14 45 -31z m507 -1 c7
-7 12 -21 12 -32 0 -20 -2 -19 -20 4 -10 14 -22 21 -26 17 -4 -4 0 -15 9 -25
10 -10 17 -26 17 -34 0 -35 -60 -28 -74 8 -10 27 2 29 23 3 11 -13 23 -21 27
-17 4 5 0 16 -9 26 -18 19 -22 44 -10 55 10 11 38 8 51 -5z m-580 -43 c23 -29
20 -56 -10 -74 -17 -11 -23 -9 -44 10 -33 31 -40 58 -17 74 27 21 49 18 71
-10z m409 -20 c76 -23 169 -89 219 -158 92 -124 111 -302 47 -438 -140 -301
-537 -348 -742 -89 -84 107 -114 273 -72 398 47 137 141 235 272 282 67 24
203 27 276 5z m-515 -55 c7 -11 21 -20 31 -20 11 0 17 -5 14 -12 -2 -7 -13
-12 -25 -10 -26 4 -37 -14 -21 -34 24 -29 -1 -25 -40 7 -40 32 -41 33 -24 53
35 42 47 45 65 16z m798 -5 c-10 -12 -10 -18 0 -30 9 -11 16 -13 24 -5 13 13
26 13 26 1 0 -14 -69 -65 -77 -58 -3 4 0 13 6 21 18 21 3 39 -25 32 -35 -9
-29 7 13 37 38 27 55 29 33 2z m-890 -81 c0 -3 -5 -14 -10 -24 -6 -12 -7 -21
-1 -25 6 -3 15 4 21 15 6 11 15 20 21 20 6 0 5 -8 -2 -21 -7 -15 -8 -24 0 -32
7 -7 14 -2 22 16 7 15 16 24 20 21 11 -6 -18 -64 -31 -64 -16 0 -80 33 -80 41
0 16 23 59 32 59 4 0 8 -3 8 -6z m959 -83 c-19 -21 -37 -40 -41 -40 -12 -1 -9
27 2 34 14 9 -7 35 -26 35 -8 0 -14 4 -14 9 0 12 91 19 104 9 5 -4 -6 -25 -25
-47z m-976 -57 c21 -14 36 -31 34 -37 -4 -12 -87 -31 -96 -22 -8 8 7 17 41 24
l33 7 -32 17 c-18 10 -33 22 -33 27 0 16 13 12 53 -16z m1032 10 c17 -17 17
-65 0 -64 -5 1 -8 10 -7 22 4 24 -13 38 -39 31 -21 -6 -25 -33 -7 -51 6 -6 8
-15 4 -19 -12 -12 -45 35 -39 56 5 18 35 39 60 40 6 1 19 -6 28 -15z m-6 -110
c27 -6 31 -10 31 -40 0 -19 -4 -34 -10 -34 -5 0 -10 11 -10 25 0 14 -4 25 -10
25 -5 0 -10 -12 -10 -26 0 -14 -4 -23 -10 -19 -5 3 -10 15 -10 26 0 10 -4 19
-10 19 -5 0 -10 -11 -10 -25 0 -14 -4 -25 -10 -25 -11 0 -14 63 -3 73 8 9 22
9 62 1z m-1007 -46 c-17 -17 -15 -45 4 -52 8 -3 13 -10 10 -15 -7 -10 -106 18
-106 31 0 9 93 58 99 52 3 -2 -1 -10 -7 -16z m32 -120 c3 -13 6 -27 6 -31 0
-10 -63 -37 -85 -37 -29 0 -15 17 25 29 36 11 39 15 34 36 -3 14 -2 25 4 25 5
0 12 -10 16 -22z m955 11 c17 -6 31 -16 31 -21 0 -9 -27 -6 -63 8 -10 3 -18
-2 -22 -15 -3 -12 -11 -21 -16 -21 -11 0 -11 3 1 34 11 29 22 31 69 15z m-49
-99 c34 -17 53 -40 35 -40 -15 0 -85 42 -85 50 0 14 5 13 50 -10z m-838 -55
c10 -22 8 -29 -12 -50 -27 -29 -46 -31 -72 -8 -37 33 -11 83 43 83 22 0 32 -7
41 -25z m825 3 c18 -13 33 -26 33 -29 0 -3 -11 -16 -24 -28 l-23 -22 -37 22
c-39 23 -42 30 -24 59 16 26 34 25 75 -2z m-766 -69 l21 -21 -35 -36 c-43 -43
-63 -35 -22 8 28 29 28 30 10 50 -24 27 -1 26 26 -1z m696 -11 l33 -32 -26
-28 c-21 -21 -31 -25 -45 -17 -11 5 -19 16 -19 23 0 8 -9 16 -21 19 -32 8 -14
24 21 19 29 -4 41 10 20 23 -11 7 -14 25 -3 25 4 0 22 -14 40 -32z m-607 -58
c11 -11 20 -27 20 -35 0 -21 -36 -55 -59 -55 -18 0 -51 34 -51 51 0 14 42 59
56 59 8 0 23 -9 34 -20z m519 -14 c12 -18 21 -37 21 -43 0 -14 -58 -45 -65
-34 -3 6 6 16 21 24 18 9 23 16 15 21 -7 4 -19 2 -27 -5 -8 -6 -18 -9 -22 -5
-4 4 4 15 17 25 25 19 16 37 -9 20 -8 -5 -22 -9 -30 -9 -10 1 -8 7 9 20 33 28
46 25 70 -14z m-419 -31 c6 -8 8 -19 4 -26 -5 -8 -9 -7 -16 5 -5 9 -16 16 -25
16 -13 0 -12 -5 7 -24 13 -15 20 -32 17 -40 -9 -23 -54 -20 -67 4 -9 16 -8 20
5 20 8 0 15 -4 15 -10 0 -5 8 -10 18 -10 14 1 14 3 -5 19 -13 11 -23 29 -23
40 0 16 6 21 29 21 16 0 34 -7 41 -15z m307 -2 c3 -7 -5 -11 -21 -10 -14 1
-25 -2 -25 -8 -1 -5 10 -10 25 -10 34 -1 48 -24 27 -47 -20 -22 -37 -23 -54
-1 -13 15 -12 16 8 11 13 -4 25 -2 28 2 3 5 -7 10 -21 12 -39 4 -55 35 -29 54
22 17 56 15 62 -3z"/>
<path d="M5010 8441 c0 -28 20 -60 35 -55 25 10 15 58 -12 62 -13 2 -23 -1
-23 -7z"/>
<path d="M5316 8419 c-18 -26 -11 -49 15 -49 28 0 43 35 23 54 -20 20 -20 20
-38 -5z"/>
<path d="M4920 8390 c0 -5 5 -10 11 -10 5 0 7 5 4 10 -3 6 -8 10 -11 10 -2 0
-4 -4 -4 -10z"/>
<path d="M4815 8349 c-4 -5 1 -20 11 -32 11 -12 20 -24 22 -27 2 -3 10 4 17
14 10 13 11 24 4 37 -11 21 -44 25 -54 8z"/>
<path d="M5145 8270 c-3 -6 1 -7 9 -4 18 7 21 14 7 14 -6 0 -13 -4 -16 -10z"/>
<path d="M5126 8114 c-28 -43 -56 -116 -56 -146 0 -19 -1 -19 -20 3 l-20 24
10 -28 c18 -50 11 -53 -24 -12 l-34 40 -12 -30 c-15 -40 -6 -81 30 -138 18
-29 25 -47 17 -47 -7 0 -18 5 -25 12 -9 9 -12 8 -12 -4 0 -20 117 -33 227 -25
79 6 86 1 57 -43 -30 -44 -44 -50 -129 -50 -89 0 -102 6 -134 60 -12 19 -21
31 -21 25 1 -14 70 -122 70 -108 0 7 31 11 85 12 47 0 85 -2 85 -5 0 -11 -23
-49 -34 -56 -23 -16 -96 -8 -116 12 -11 11 -20 16 -20 10 0 -5 9 -17 19 -27
10 -10 21 -27 24 -38 4 -18 5 -18 6 3 1 18 7 22 36 22 27 0 35 -4 35 -17 0
-20 2 -18 52 73 15 27 36 63 47 79 21 31 29 81 11 70 -5 -3 -10 1 -10 9 0 8 4
18 10 21 28 17 36 155 9 155 -6 0 -23 -9 -37 -21 -29 -22 -40 -12 -22 20 6 12
7 21 2 21 -4 0 -13 -12 -19 -27 -11 -27 -11 -27 -12 12 -1 46 -28 156 -41 169
-4 4 -19 -9 -34 -30z"/>
<path d="M4955 8090 c-3 -6 1 -7 9 -4 18 7 21 14 7 14 -6 0 -13 -4 -16 -10z"/>
<path d="M5051 8044 c0 -11 3 -14 6 -6 3 7 2 16 -1 19 -3 4 -6 -2 -5 -13z"/>
<path d="M4931 7994 c0 -11 3 -14 6 -6 3 7 2 16 -1 19 -3 4 -6 -2 -5 -13z"/>
<path d="M5100 7520 c0 -9 39 -25 45 -18 2 2 -7 8 -21 15 -13 6 -24 7 -24 3z"/>
<path d="M4732 8268 c-16 -16 -15 -28 2 -28 16 0 29 27 17 34 -4 3 -13 0 -19
-6z"/>
<path d="M4718 7649 c-20 -11 -24 -44 -8 -54 30 -18 71 25 49 51 -13 16 -18
17 -41 3z"/>
<path d="M5547 7636 c-3 -8 -3 -17 0 -20 7 -7 33 13 33 25 0 15 -27 10 -33 -5z"/>
<path d="M5585 7620 c-8 -13 4 -32 16 -25 12 8 12 35 0 35 -6 0 -13 -4 -16
-10z"/>
<path d="M5505 7529 c-4 -6 -4 -13 -1 -16 8 -8 36 5 36 17 0 13 -27 13 -35 -1z"/>
<path d="M4876 7494 c-19 -19 -20 -26 -4 -42 18 -18 36 -15 48 7 21 40 -12 67
-44 35z"/>
<path d="M5540 8495 c-49 -25 -61 -35 -48 -40 9 -4 25 -5 35 -2 13 3 11 5 -7
6 -20 2 -12 9 40 36 36 19 61 34 55 34 -5 0 -39 -15 -75 -34z"/>
<path d="M4693 8463 c-30 -4 -33 -7 -32 -36 2 -29 2 -30 6 -5 4 24 10 27 66
36 60 9 27 13 -40 5z"/>
<path d="M5563 8443 c9 -2 25 -2 35 0 9 3 1 5 -18 5 -19 0 -27 -2 -17 -5z"/>
<path d="M4545 8431 c12 -5 34 -39 54 -85 34 -77 51 -95 51 -53 0 15 -3 18 -8
9 -6 -8 -20 14 -41 63 -27 60 -37 75 -55 74 -21 0 -21 0 -1 -8z"/>
<path d="M5637 8433 c13 -2 24 -13 26 -26 4 -18 5 -17 6 6 1 23 -3 27 -26 26
-23 -1 -24 -2 -6 -6z"/>
<path d="M5732 8344 c-32 -65 -38 -72 -43 -52 -6 20 -7 18 -8 -9 -1 -18 3 -33
7 -33 4 0 25 36 47 80 21 43 46 81 54 83 13 4 13 5 -2 6 -12 1 -28 -21 -55
-75z"/>
<path d="M5835 8400 c17 -4 41 -8 55 -8 22 0 22 1 -5 8 -16 4 -41 8 -55 8 -22
0 -22 -1 5 -8z"/>
<path d="M4653 8355 c0 -22 2 -30 4 -17 2 12 2 30 0 40 -3 9 -5 -1 -4 -23z"/>
<path d="M5672 8350 c0 -19 2 -27 5 -17 2 9 2 25 0 35 -3 9 -5 1 -5 -18z"/>
<path d="M3925 8000 c-3 -11 -29 -41 -56 -67 -55 -53 -90 -106 -114 -173 -22
-61 -75 -273 -70 -278 7 -7 98 73 165 145 108 115 141 221 109 349 -12 47 -24
56 -34 24z"/>
<path d="M6279 7983 c-7 -21 -13 -68 -13 -104 0 -55 6 -78 32 -132 32 -65 121
-165 210 -235 52 -42 53 -38 12 118 -38 144 -86 246 -137 287 -21 16 -47 47
-58 67 -11 20 -23 36 -26 36 -4 0 -13 -17 -20 -37z"/>
<path d="M3595 7739 c-210 -180 -271 -256 -318 -399 -21 -62 -57 -255 -57
-304 0 -8 80 66 179 163 187 185 232 244 270 358 20 60 47 240 39 264 -2 7
-51 -28 -113 -82z"/>
<path d="M4170 7819 l-35 -8 38 3 c20 1 37 -1 37 -6 0 -4 -9 -32 -20 -62 -23
-59 -91 -131 -151 -159 -83 -39 -252 -89 -273 -81 -7 3 -19 -3 -27 -12 -13
-16 -11 -17 16 -10 22 6 13 -3 -34 -34 -36 -23 -114 -90 -175 -149 -61 -59
-135 -126 -164 -149 -35 -27 -47 -42 -35 -41 22 1 63 17 45 18 -18 1 239 248
310 298 39 27 84 48 129 60 37 9 63 20 57 24 -6 4 15 6 48 5 32 -2 39 -1 15 1
l-45 4 82 33 c98 40 159 87 194 152 27 51 47 125 32 123 -5 -1 -25 -5 -44 -10z"/>
<path d="M6533 7749 c8 -112 30 -198 73 -279 43 -81 92 -138 272 -315 l143
-139 -6 44 c-55 385 -99 457 -469 759 -18 16 -19 14 -13 -70z"/>
<path d="M6020 7797 c0 -37 48 -123 90 -161 44 -40 110 -75 189 -101 32 -10
49 -20 41 -25 -7 -4 6 -9 29 -13 61 -8 160 -58 222 -112 29 -26 102 -94 161
-151 120 -117 123 -114 -67 -53 -171 55 -333 138 -401 204 -30 30 -61 69 -69
87 -8 18 -14 26 -15 17 0 -23 50 -89 100 -132 51 -44 166 -105 287 -152 48
-19 79 -35 68 -35 -11 -1 16 -14 60 -29 44 -15 99 -37 123 -49 23 -13 42 -20
42 -17 0 4 -33 22 -72 41 -75 36 -73 37 25 9 32 -9 61 -15 63 -12 3 3 -10 15
-28 28 -18 13 -94 82 -169 154 -81 78 -159 143 -195 163 -52 29 -55 32 -24 26
19 -3 33 -4 30 -1 -3 3 -23 20 -46 39 -22 18 -75 73 -118 120 -42 47 -89 94
-104 103 -15 10 -2 -7 28 -37 104 -103 197 -208 184 -208 -25 0 -208 62 -257
87 -89 44 -178 161 -164 214 3 10 1 19 -4 19 -5 0 -9 -10 -9 -23z m677 -633
c-3 -3 -12 -4 -19 -1 -8 3 -5 6 6 6 11 1 17 -2 13 -5z"/>
<path d="M6098 7804 c29 -7 66 -21 83 -30 17 -8 28 -11 25 -5 -9 13 -112 51
-139 50 -12 0 2 -7 31 -15z"/>
<path d="M4035 7771 c-44 -25 -279 -261 -260 -261 4 0 32 28 63 61 133 144
160 170 212 198 30 17 51 31 45 31 -5 0 -32 -13 -60 -29z"/>
<path d="M4014 7519 c-4 -8 -3 -9 4 -5 19 12 14 -26 -9 -63 -59 -98 -224 -194
-463 -271 -50 -16 -65 -25 -55 -32 10 -7 6 -8 -13 -4 -14 3 -37 1 -50 -4 -19
-9 -18 -9 12 -5 30 5 24 0 -37 -33 -90 -49 -171 -110 -228 -174 -50 -56 -226
-311 -188 -273 6 6 43 59 83 118 151 224 295 330 531 392 81 22 76 25 -11 9
-14 -3 18 13 71 34 118 48 219 102 278 150 47 38 101 115 101 143 0 22 -16 33
-26 18z"/>
<path d="M6195 7520 c-3 -5 -2 -10 4 -10 5 0 13 5 16 10 3 6 2 10 -4 10 -5 0
-13 -4 -16 -10z"/>
<path d="M6258 7513 c12 -2 32 -2 45 0 12 2 2 4 -23 4 -25 0 -35 -2 -22 -4z"/>
<path d="M3177 7447 c-26 -29 -96 -104 -154 -167 -59 -63 -127 -147 -153 -186
-92 -141 -127 -316 -109 -552 9 -119 16 -153 26 -125 3 7 60 97 127 200 200
307 253 409 297 581 21 83 38 302 23 301 -5 0 -31 -24 -57 -52z"/>
<path d="M7004 7380 c3 -95 11 -147 31 -215 36 -125 126 -304 240 -475 53 -80
116 -176 140 -214 l44 -70 8 30 c4 16 8 115 8 219 -1 179 -2 194 -28 270 -49
146 -112 233 -337 465 l-111 115 5 -125z"/>
<path d="M4945 7288 c-972 -98 -1788 -1015 -2019 -2268 -46 -249 -60 -414 -60
-705 0 -290 14 -450 60 -705 36 -199 118 -494 179 -644 7 -16 5 -17 -23 -11
-21 4 -32 3 -32 -5 0 -40 166 -381 249 -512 22 -35 38 -64 36 -66 -1 -2 -30 4
-63 12 -115 30 -186 15 -218 -45 -14 -27 -14 -42 -3 -115 l12 -83 19 25 c59
75 158 78 327 9 96 -39 161 -96 139 -122 -12 -14 -12 -13 91 -134 l45 -51 -35
7 c-18 4 -83 27 -144 50 -212 83 -291 93 -370 47 l-33 -20 -12 66 c-6 37 -14
74 -16 82 -3 12 -25 15 -106 16 -115 2 -210 22 -305 64 -34 16 -64 26 -67 22
-3 -3 -6 -46 -6 -96 l0 -91 75 -33 c113 -50 215 -73 335 -75 l105 -3 19 -97
c10 -54 16 -101 12 -105 -4 -4 -62 -7 -129 -6 -116 0 -128 2 -252 43 -71 24
-136 46 -143 49 -10 3 -12 -19 -10 -104 l3 -108 190 -53 c220 -61 310 -76 384
-64 78 12 85 24 89 142 3 73 0 104 -10 116 -9 12 -9 15 0 9 8 -5 12 1 12 19 0
33 -34 41 452 -101 318 -93 402 -122 459 -155 86 -50 266 -128 376 -163 437
-137 913 -105 1340 93 79 36 223 83 539 175 237 69 439 126 450 126 18 0 19
-9 19 -117 0 -152 5 -169 53 -182 80 -23 159 -13 377 45 116 31 218 60 227 65
17 9 18 34 18 320 0 293 -1 311 -17 304 -10 -4 -63 -24 -118 -43 -85 -29 -117
-36 -214 -40 -83 -4 -115 -2 -121 7 -4 7 -13 -24 -20 -71 -7 -45 -14 -86 -17
-90 -2 -4 -22 2 -46 12 -86 40 -160 27 -396 -65 -137 -53 -145 -46 -56 50 l73
79 -20 29 c-25 35 -20 41 59 75 217 93 308 104 382 44 46 -37 47 -35 57 64 8
75 -4 107 -50 131 -37 19 -123 18 -193 -2 -30 -9 -57 -14 -60 -11 -3 2 13 31
35 63 118 175 281 495 263 517 -7 8 8 62 45 171 103 297 169 622 195 950 14
183 7 571 -15 745 -121 974 -568 1781 -1229 2217 -119 79 -329 181 -457 223
-231 75 -477 102 -715 78z m350 -13 c182 -15 401 -78 598 -174 577 -281 1043
-866 1286 -1614 221 -681 240 -1465 51 -2173 -33 -126 -115 -369 -135 -399
-15 -25 -350 -134 -364 -119 -4 5 -27 64 -49 131 l-41 122 29 71 c40 97 102
290 97 303 -2 7 -9 -10 -15 -36 -7 -26 -17 -47 -22 -47 -6 0 -10 5 -10 10 0
15 -101 10 -126 -5 -36 -23 -58 -20 -90 10 -61 59 -87 76 -103 70 -9 -4 -20
-7 -26 -8 -15 -3 -18 42 -4 90 14 53 80 111 156 138 95 35 133 57 173 102 73
83 99 207 66 316 -18 60 -77 140 -130 176 -70 48 -222 121 -274 131 -52 10
-124 39 -118 49 2 3 -35 4 -82 1 -72 -4 -96 -10 -140 -34 -64 -36 -112 -93
-112 -133 0 -22 -13 -42 -55 -82 -30 -29 -55 -57 -55 -61 0 -4 10 -19 21 -34
l21 -27 -21 -23 c-13 -14 -19 -29 -15 -39 4 -12 1 -17 -10 -17 -12 0 -16 -9
-16 -34 0 -19 -4 -38 -10 -41 -21 -13 -8 -45 30 -77 48 -38 80 -86 80 -119 -1
-34 -26 -61 -95 -104 -70 -44 -125 -93 -125 -112 0 -8 -7 -16 -15 -19 -22 -9
-19 -60 5 -84 11 -11 20 -24 20 -29 0 -14 38 -24 66 -17 23 6 24 4 24 -41 l0
-48 -56 -1 c-53 -1 -55 0 -50 22 4 14 1 26 -7 31 -8 4 -16 16 -20 26 -3 9 -15
17 -26 17 -11 0 -22 4 -25 9 -3 5 -22 12 -42 15 -33 7 -35 9 -29 34 8 33 2 28
55 39 42 8 45 11 48 42 6 63 -3 80 -50 83 -39 3 -43 6 -52 37 -10 35 -5 43 44
71 12 7 11 16 -10 60 -20 43 -27 50 -45 45 -60 -17 -71 -16 -90 5 -17 19 -18
25 -6 53 21 52 18 59 -34 89 l-49 30 -19 -23 c-10 -12 -21 -29 -26 -37 -7 -12
-14 -12 -45 -2 -34 11 -36 14 -36 55 0 42 -2 44 -33 50 -18 4 -49 5 -68 3 -32
-3 -34 -5 -39 -47 -4 -38 -9 -46 -32 -52 -28 -7 -41 3 -74 57 -11 18 -14 18
-69 -9 -45 -22 -55 -31 -50 -45 28 -68 28 -73 7 -95 -21 -20 -23 -20 -57 -4
-20 9 -39 17 -44 17 -8 0 -71 -95 -71 -107 0 -4 14 -18 31 -33 29 -23 31 -29
22 -56 -8 -25 -15 -29 -51 -32 l-42 -3 0 -64 0 -64 35 -7 c40 -7 40 -7 50 -51
6 -32 5 -33 -24 -33 -26 0 -31 4 -31 24 0 15 -12 34 -31 50 -34 29 -44 32 -55
15 -4 -8 -13 -4 -25 12 l-18 24 -23 -20 c-51 -44 -65 -47 -93 -19 -14 14 -25
29 -25 33 0 5 -10 11 -22 14 -16 5 -30 -1 -49 -19 -14 -14 -32 -22 -41 -19
-21 8 -41 -20 -35 -48 11 -40 45 -68 80 -65 l32 3 -3 -65 c-2 -36 -7 -68 -11
-72 -3 -4 -23 -2 -44 4 -28 9 -37 17 -37 34 0 12 7 24 15 28 18 6 20 52 3 62
-38 24 -97 2 -85 -31 4 -9 16 -19 27 -22 26 -7 28 -53 2 -53 -10 0 -27 -7 -38
-15 -10 -8 -29 -15 -42 -15 -21 0 -22 3 -20 75 2 69 4 75 24 75 20 0 44 34 44
64 0 20 -47 59 -64 53 -9 -4 -25 5 -40 23 -14 17 -28 30 -32 30 -4 0 -16 8
-27 17 -17 16 -20 16 -30 3 -7 -9 -20 -14 -30 -12 -27 5 -57 -27 -57 -60 0
-24 -3 -28 -19 -23 -21 6 -71 -13 -71 -27 0 -22 22 -48 40 -48 16 0 20 -7 20
-32 0 -18 -4 -28 -8 -22 -11 17 -51 36 -63 29 -5 -4 -15 -2 -22 4 -8 6 -18 6
-27 1 -33 -21 -39 -10 -19 35 11 25 23 77 26 116 6 67 7 71 47 101 23 18 66
55 96 83 48 45 71 56 179 94 102 35 131 42 167 36 35 -5 47 -2 63 14 12 12 21
34 21 51 0 39 -21 39 -98 4 -31 -15 -93 -39 -137 -54 -44 -16 -88 -32 -97 -35
-27 -11 -23 48 6 111 29 63 34 85 42 199 6 95 26 151 60 169 50 28 64 43 64
66 0 5 14 17 31 25 28 15 30 20 27 58 -3 41 -23 77 -43 77 -5 0 -3 -5 5 -10 8
-5 10 -10 4 -10 -6 0 -14 3 -18 7 -4 4 -18 8 -31 9 -16 0 -25 -6 -29 -21 -6
-23 -28 -37 -88 -55 -21 -6 -38 -16 -38 -22 0 -6 -7 -7 -16 -4 -8 3 -13 2 -10
-2 8 -13 -68 -116 -104 -140 -99 -65 -180 -166 -180 -224 0 -7 -11 -29 -24
-49 -25 -37 -51 -113 -35 -104 5 4 9 13 9 21 0 8 10 34 21 57 l22 41 18 -69
c10 -39 18 -73 18 -77 1 -3 24 0 53 7 28 8 55 12 59 9 12 -7 -9 -65 -32 -90
-12 -13 -25 -21 -29 -19 -4 2 -5 -18 -2 -44 4 -43 2 -51 -18 -61 -13 -7 -33
-9 -48 -4 -15 4 -36 8 -46 9 -31 3 -46 35 -46 96 0 43 4 60 16 67 10 6 14 14
9 22 -5 8 -13 1 -25 -24 -14 -31 -15 -47 -7 -99 11 -71 11 -70 2 -239 -4 -71
-10 -128 -13 -128 -3 0 -14 7 -24 17 -17 15 -19 15 -36 0 -24 -22 -52 -22 -52
0 0 9 -3 14 -6 11 -3 -4 5 -39 17 -80 12 -40 24 -67 26 -60 3 6 9 10 14 7 5
-3 17 -1 28 4 29 16 33 -20 6 -52 l-23 -26 -7 26 c-3 14 -8 23 -11 20 -3 -2 4
-28 16 -56 l20 -52 -55 -141 c-30 -77 -56 -142 -58 -144 -6 -6 -291 97 -304
109 -33 33 -151 440 -192 662 -50 269 -56 344 -56 705 0 358 4 402 51 678 84
495 267 953 532 1337 184 267 448 524 691 675 359 222 716 309 1136 275z
m-1175 -2920 c0 -8 -4 -15 -9 -15 -13 0 -22 16 -14 24 11 11 23 6 23 -9z
m1072 -607 c50 -15 123 -79 150 -131 51 -100 30 -226 -51 -307 -100 -100 -253
-105 -359 -14 -55 47 -83 104 -90 180 -12 159 98 284 251 284 33 0 77 -5 99
-12z m-1222 -357 c0 -30 -4 -40 -20 -44 -11 -3 -20 -14 -20 -25 0 -10 9 -27
20 -37 20 -18 28 -75 11 -75 -4 0 -22 5 -40 11 -31 11 -31 12 -31 80 0 56 3
69 16 69 9 0 21 14 27 30 16 43 37 38 37 -9z m40 14 c0 -8 10 -21 22 -29 30
-21 16 -31 -21 -15 -31 14 -36 24 -25 53 7 18 24 12 24 -9z m1920 -43 c0 -13
-12 -22 -22 -16 -10 6 -1 24 13 24 5 0 9 -4 9 -8z m-1525 -88 c37 -24 32 -44
-10 -44 l-35 0 1 63 c1 56 2 59 10 30 5 -18 21 -40 34 -49z m1432 60 c17 -5
23 -15 25 -43 3 -34 5 -36 43 -41 l40 -5 -38 -12 c-54 -16 -113 7 -121 49 -12
60 -5 67 51 52z m253 -38 c5 -15 20 -25 40 -29 25 -6 31 -11 28 -29 -2 -15
-10 -22 -30 -22 -15 -1 -35 -12 -45 -25 -11 -14 -25 -21 -31 -17 -17 10 -15
71 3 86 8 7 15 18 15 25 0 7 -7 18 -15 25 -22 18 -18 32 5 20 12 -6 25 -22 30
-34z m-2385 12 c6 -14 22 -25 40 -28 21 -4 31 -12 33 -27 3 -21 1 -22 -46 -16
-43 5 -51 3 -65 -17 -15 -21 -19 -22 -46 -10 -36 15 -42 43 -8 38 16 -2 26 5
37 27 32 64 40 68 55 33z m825 -3 c0 -8 -4 -15 -10 -15 -5 0 -7 7 -4 15 4 8 8
15 10 15 2 0 4 -7 4 -15z m-660 -44 c0 -34 -4 -40 -31 -51 -36 -15 -49 -4 -49
44 0 25 3 27 24 22 15 -4 28 0 36 9 18 22 20 19 20 -24z m2441 6 c13 0 31 2
39 4 12 3 16 -10 18 -68 2 -52 -1 -73 -9 -73 -7 0 -36 14 -66 30 -46 26 -73
36 -105 39 -5 1 -8 15 -8 31 0 27 3 30 34 30 18 0 39 7 46 15 10 11 15 13 20
4 4 -6 18 -11 31 -12z m-2236 -23 c0 -12 -8 -20 -22 -22 -20 -3 -23 1 -23 27
0 27 2 30 23 22 12 -5 22 -17 22 -27z m405 9 c0 -10 -6 -13 -16 -9 -9 3 -18 6
-20 6 -2 0 -4 6 -4 14 0 9 7 12 20 9 11 -3 20 -12 20 -20z m-470 -12 c0 -17
-4 -33 -10 -36 -6 -4 -10 8 -10 29 0 20 5 36 10 36 6 0 10 -13 10 -29z m2503
-18 c4 -7 17 -13 27 -13 15 0 20 -7 20 -25 0 -31 -22 -33 -43 -2 l-15 22 -50
-27 -50 -27 -6 51 c-5 35 -3 53 5 59 14 8 101 -21 112 -38z m-513 12 c29 -15
40 -35 21 -35 -12 0 -69 49 -58 50 4 0 21 -7 37 -15z m644 -3 c-1 -7 -2 -23
-2 -37 -2 -21 -7 -25 -32 -25 -36 0 -39 19 -8 55 22 25 44 29 42 7z m56 -3 c0
-5 -8 -26 -17 -47 l-17 -37 -4 39 c-2 21 -1 44 2 52 6 14 36 8 36 -7z m-1705
-14 c91 -24 85 -6 60 -205 -8 -57 -19 -74 -45 -64 -8 3 -42 12 -75 21 -68 18
-207 13 -310 -11 -83 -19 -48 -19 60 0 113 20 228 14 311 -17 91 -33 92 -32
93 112 1 68 4 125 6 128 3 2 5 -53 5 -123 0 -104 3 -128 15 -132 9 -4 47 4 85
16 61 20 84 22 173 17 56 -3 152 -17 212 -31 61 -14 126 -26 145 -26 24 0 30
-3 20 -9 -8 -5 -141 -11 -294 -15 -219 -5 -283 -9 -295 -20 -9 -8 -25 -16 -36
-19 -19 -4 -18 -5 2 -6 12 0 34 4 49 9 21 8 31 7 45 -6 10 -9 22 -13 27 -10 5
3 24 -6 43 -20 18 -13 40 -22 47 -19 8 3 29 -4 47 -15 22 -14 42 -19 58 -15
18 5 30 1 45 -15 16 -17 27 -21 51 -15 23 5 33 3 37 -9 4 -11 19 -16 43 -16
24 0 42 -7 54 -20 11 -13 29 -20 51 -20 18 0 39 -7 46 -15 7 -8 25 -15 40 -15
15 0 33 -7 40 -15 7 -8 23 -15 37 -15 13 0 26 -7 29 -15 4 -8 17 -15 31 -15
14 0 36 -9 50 -20 14 -11 38 -20 53 -20 15 0 33 -7 40 -15 7 -8 26 -18 42 -23
l29 -7 -21 -22 c-27 -30 -25 -38 10 -53 17 -7 30 -15 30 -19 0 -20 -216 -210
-317 -279 -106 -72 -303 -169 -317 -155 -2 3 -11 1 -18 -3 -17 -11 -78 -13
-72 -2 6 10 -10 11 -20 1 -11 -11 -66 -10 -66 2 0 5 -5 3 -10 -5 -9 -13 -10
-13 -10 0 0 13 -1 13 -10 0 -9 -13 -10 -13 -10 0 0 13 -1 13 -10 0 -9 -13 -10
-13 -10 0 0 9 -3 11 -8 5 -11 -15 -32 -17 -32 -2 0 8 -4 7 -10 -3 -6 -9 -10
-11 -10 -3 0 7 -6 10 -12 8 -32 -11 -68 -13 -74 -3 -4 6 -10 5 -15 -3 -7 -11
-9 -11 -9 1 0 13 -1 13 -10 0 -6 -10 -10 -11 -10 -2 0 6 -5 12 -11 12 -5 0 -8
-3 -6 -7 7 -11 -195 -10 -210 0 -8 5 -13 3 -14 -5 0 -10 -2 -10 -6 1 -5 11 -7
11 -14 0 -7 -12 -9 -11 -9 1 0 13 -1 13 -10 0 -7 -11 -10 -11 -10 -2 0 7 -4
10 -10 7 -8 -5 -126 -9 -140 -5 -3 1 -15 3 -27 6 -12 2 -62 21 -110 42 -152
65 -333 194 -493 351 l-75 73 33 14 c17 8 32 17 32 20 0 3 -13 23 -30 44 -16
21 -30 41 -30 44 0 3 16 6 36 6 21 0 47 8 62 21 19 15 35 19 57 15 23 -5 39 0
65 19 23 17 47 25 75 25 28 0 46 6 58 20 12 15 29 20 63 20 27 0 51 6 60 15
10 9 32 15 57 14 50 -2 107 9 107 21 0 12 39 24 71 22 15 -1 32 5 39 13 7 8
17 15 23 15 10 0 77 29 130 57 32 17 149 22 187 9 18 -6 15 -1 -12 17 -45 31
-72 35 -323 42 -110 3 -241 8 -292 12 l-92 6 20 28 c25 36 39 37 39 4 0 -22 4
-25 38 -24 20 0 55 4 77 9 30 6 22 7 -33 3 l-73 -6 5 29 c2 16 5 47 5 69 1 38
6 43 90 107 l87 66 47 -10 c37 -7 62 -5 129 11 147 36 138 35 213 16z m392
-22 c54 -18 100 -26 150 -27 l72 -1 83 -70 84 -70 2 -57 2 -58 -37 0 c-61 0
-113 12 -106 23 4 6 -2 8 -17 4 -13 -3 -30 -1 -37 5 -7 6 -13 8 -13 4 0 -3
-16 1 -36 9 -20 8 -47 12 -60 9 -13 -3 -24 -2 -24 2 0 13 -219 -1 -258 -16
-41 -15 -50 -7 -56 45 -3 22 -10 72 -15 110 -11 77 -8 83 42 102 56 20 140 15
224 -14z m448 -273 l29 -30 -35 0 c-34 0 -35 2 -31 30 2 17 5 30 6 30 1 0 15
-13 31 -30z m-1914 -464 c11 -22 -2 -41 -152 -235 -90 -115 -169 -210 -175
-211 -6 0 -17 6 -23 14 -10 12 18 55 154 235 91 122 170 221 175 221 6 0 15
-11 21 -24z m2543 -251 c154 -196 164 -211 149 -227 -9 -10 -21 -18 -27 -17
-9 0 -308 371 -351 434 -6 10 -3 20 10 35 24 26 11 40 219 -225z m-2321 -106
c60 -47 68 -60 36 -57 -22 3 -25 -4 -47 -115 -13 -65 -22 -121 -18 -124 7 -7
144 104 160 129 8 13 7 23 -2 39 -21 34 -9 32 41 -7 50 -39 59 -55 28 -47 -26
7 -46 -6 -167 -104 -92 -74 -108 -83 -120 -71 -13 13 -11 34 16 164 32 159 36
199 20 209 -10 6 -14 25 -5 25 3 0 29 -18 58 -41z m1952 -9 c-6 -26 2 -43 63
-128 78 -109 87 -119 120 -124 21 -3 16 -8 -34 -41 l-57 -39 7 27 c6 22 -4 44
-56 122 -42 62 -64 88 -66 76 -1 -10 13 -71 32 -135 18 -65 30 -118 25 -118
-5 0 -48 32 -96 71 -94 75 -123 94 -123 82 0 -5 27 -51 60 -102 55 -84 63 -92
85 -87 36 9 30 -5 -16 -38 -43 -30 -57 -30 -40 2 8 16 1 35 -38 103 -27 46
-57 99 -67 117 -20 35 -42 46 -68 36 -24 -9 -20 -30 28 -140 60 -140 63 -144
91 -144 42 0 28 -16 -40 -42 -36 -15 -65 -24 -65 -22 0 2 5 13 12 23 10 16 6
35 -25 113 -57 142 -59 142 -55 -19 2 -79 1 -143 -3 -143 -3 0 -39 37 -79 83
-41 45 -82 91 -93 102 -19 20 -19 20 -14 -10 3 -16 20 -67 37 -112 29 -77 33
-82 63 -85 32 -4 31 -4 -23 -29 -55 -26 -74 -29 -52 -7 7 7 12 21 12 33 0 26
-68 235 -82 253 -6 6 -22 12 -36 12 -32 0 -20 12 33 33 l41 15 84 -91 85 -91
5 130 c5 127 5 129 29 132 13 2 32 12 43 21 10 10 29 24 43 31 22 12 30 8 113
-54 49 -36 94 -66 101 -66 13 0 11 11 -26 140 l-24 85 33 27 c18 15 34 28 36
28 2 0 1 -14 -3 -30z m1475 -238 l0 -108 -132 -43 c-73 -23 -162 -46 -198 -52
-63 -10 -174 -5 -197 9 -8 5 -6 33 6 102 l17 95 119 7 c131 7 201 23 304 67
36 16 69 29 74 30 4 1 7 -48 7 -107z m-2874 -39 c62 -17 84 -33 44 -33 -18 0
-20 -7 -20 -64 0 -87 11 -186 21 -186 12 0 118 151 125 179 5 17 2 28 -11 37
-31 23 -9 26 49 8 56 -18 73 -34 37 -34 -23 0 -52 -32 -154 -171 -62 -85 -82
-106 -98 -102 -13 4 -19 14 -19 32 0 15 -5 88 -10 162 -9 106 -15 140 -31 162
-23 32 -18 33 67 10z m-257 -93 c38 -28 47 -50 19 -50 -19 0 -98 54 -98 68 0
21 35 13 79 -18z m906 11 c3 -5 -5 -11 -17 -13 -23 -3 -23 -6 -26 -151 l-3
-147 26 -10 c14 -5 25 -12 25 -15 0 -3 -42 -5 -92 -4 -79 1 -89 3 -65 12 36
14 38 27 35 177 -3 119 -4 125 -25 135 -13 5 -23 13 -23 17 0 11 158 10 165
-1z m-217 -17 l-28 -15 0 -144 0 -145 25 -6 c51 -13 23 -24 -60 -24 -86 0
-104 7 -62 25 21 10 22 16 25 153 l3 142 -26 10 c-14 5 -25 12 -25 15 0 3 39
5 88 5 83 -1 86 -2 60 -16z m382 -108 c0 -20 -6 -23 -67 -31 -44 -6 -53 -4
-53 9 0 16 45 34 93 35 17 1 27 -4 27 -13z"/>
<path d="M5123 7138 c-5 -7 -24 -48 -43 -91 -18 -43 -37 -80 -41 -83 -5 -3 -9
-12 -9 -20 0 -10 12 -14 40 -14 28 0 40 4 40 14 0 8 -5 18 -10 21 -19 12 1 25
36 25 35 0 45 -15 23 -37 -20 -20 1 -33 51 -33 26 0 84 -7 127 -15 43 -8 81
-15 84 -15 3 0 15 18 27 39 26 45 12 60 -27 30 -24 -19 -71 -26 -71 -10 0 4
30 35 66 69 36 33 64 67 62 74 -3 7 -35 18 -74 25 -69 12 -69 11 -91 -15 -13
-15 -23 -32 -23 -39 0 -21 17 -23 35 -3 11 12 31 20 49 20 31 0 30 -1 -39 -65
-38 -35 -73 -64 -76 -65 -13 0 -26 26 -54 105 -15 44 -32 83 -39 87 -17 11
-32 10 -43 -4z m27 -94 c0 -8 -7 -14 -15 -14 -17 0 -18 2 -9 24 7 18 24 12 24
-10z"/>
<path d="M4910 7133 c-32 -6 -40 -19 -40 -70 0 -59 -13 -60 -41 -2 -23 50 -24
51 -59 45 -19 -3 -41 -6 -47 -6 -17 0 -16 -27 1 -37 8 -4 19 -34 26 -67 10
-47 9 -63 -1 -82 -16 -31 -10 -36 37 -26 38 8 63 42 31 42 -10 0 -18 14 -22
41 -4 22 -5 42 -3 45 3 2 17 -23 33 -56 19 -40 34 -60 44 -58 17 3 29 54 31
123 0 27 3 35 9 25 14 -25 22 -100 11 -100 -5 0 -10 -9 -10 -20 0 -19 4 -20
38 -14 20 4 46 10 56 14 18 6 18 7 -1 26 -23 22 -47 133 -32 149 5 5 9 15 9
22 0 13 -22 15 -70 6z"/>
<path d="M5648 7107 c-42 -16 -35 -37 11 -37 41 0 59 18 38 39 -13 13 -13 13
-49 -2z"/>
<path d="M5580 7063 c-89 -28 -120 -119 -62 -184 24 -27 37 -33 85 -37 53 -4
58 -3 86 27 68 73 32 173 -69 194 -14 3 -32 3 -40 0z m80 -69 c10 -24 -1 -77
-21 -100 -14 -17 -61 -18 -77 -2 -23 23 -14 77 17 108 33 33 67 31 81 -6z"/>
<path d="M4548 7043 c-9 -3 -19 -12 -22 -21 -7 -25 -11 -211 -4 -217 9 -9 78
22 78 35 0 6 -7 13 -15 16 -24 9 -18 34 11 44 33 13 46 5 38 -26 -7 -29 9 -31
61 -10 35 15 48 46 21 46 -8 0 -40 29 -72 64 -60 68 -69 75 -96 69z m40 -96
c2 -10 -3 -17 -12 -17 -10 0 -16 9 -16 21 0 24 23 21 28 -4z"/>
<path d="M5797 6973 c-4 -3 -2 -12 4 -19 15 -18 -48 -134 -73 -134 -29 0 -21
-28 13 -45 37 -19 68 -13 49 10 -9 11 -6 23 14 57 l26 43 0 -81 c0 -65 3 -83
16 -88 26 -10 28 -8 69 69 26 50 46 75 57 75 28 0 21 28 -12 45 -42 21 -53 19
-46 -9 4 -16 -1 -31 -15 -47 l-20 -24 5 58 c5 57 4 59 -27 78 -34 20 -49 23
-60 12z"/>
<path d="M4192 6862 c-44 -28 -49 -45 -16 -50 26 -4 87 -106 79 -131 -11 -35
13 -32 79 11 69 43 70 46 60 97 -8 36 -34 42 -34 7 0 -29 -33 -72 -47 -63 -20
13 -67 102 -65 124 3 33 -10 34 -56 5z"/>
<path d="M6017 6843 c-4 -3 -2 -11 3 -18 13 -15 -64 -120 -88 -120 -31 0 -22
-30 17 -57 33 -23 41 -25 50 -14 8 10 9 16 1 21 -15 9 69 126 89 123 30 -5 21
27 -14 50 -37 23 -47 26 -58 15z"/>
<path d="M4975 6798 c-89 -8 -238 -44 -328 -78 -87 -33 -64 -32 33 1 98 33
120 35 120 12 0 -9 7 -77 15 -152 8 -75 33 -311 55 -526 23 -214 54 -516 71
-670 16 -154 36 -345 44 -425 28 -284 52 -480 60 -489 5 -5 8 24 6 49 -2 12 0
12 7 1 7 -9 11 -10 17 -2 5 9 10 9 21 0 11 -9 14 -8 14 2 0 12 2 12 9 0 6 -9
11 -10 15 -2 4 6 11 9 16 6 6 -4 4 -14 -2 -25 -9 -14 -14 -16 -20 -7 -6 9 -8
8 -8 -3 0 -13 -1 -13 -10 0 -8 12 -10 12 -11 -5 l0 -20 -9 20 c-6 15 -9 16 -9
4 -1 -23 9 -30 30 -19 12 7 20 7 24 0 9 -15 33 6 34 28 1 9 3 33 5 52 6 40 22
306 31 485 3 66 8 154 10 195 3 41 7 134 10 205 4 72 8 155 10 185 2 30 7 114
10 185 7 152 32 666 41 843 4 67 11 125 16 128 13 8 153 -25 246 -58 92 -33
90 -31 72 -129 -5 -30 -23 -144 -40 -254 -25 -174 -59 -397 -130 -860 -74
-480 -93 -610 -115 -762 -28 -196 -29 -196 -15 -188 6 3 10 0 10 -7 0 -9 3 -9
10 2 9 13 10 13 10 0 0 -13 1 -13 10 0 9 13 10 13 10 0 0 -13 1 -13 10 0 9 13
10 13 10 0 0 -13 1 -13 10 0 9 13 10 13 10 0 0 -12 2 -12 9 -2 7 11 9 10 14
-3 5 -10 3 -14 -5 -9 -7 5 -8 3 -3 -6 5 -9 4 -11 -3 -6 -8 5 -10 1 -5 -9 4
-12 8 -13 13 -5 6 9 9 9 13 -1 5 -11 6 -11 5 1 -1 8 9 38 21 65 25 55 102 283
411 1205 112 333 207 610 212 615 11 11 153 -133 201 -202 l27 -39 -64 -139
c-35 -77 -117 -257 -181 -400 -107 -237 -177 -392 -241 -533 -13 -29 -24 -54
-24 -56 0 -2 -22 -51 -49 -109 -28 -57 -61 -131 -75 -163 -13 -33 -38 -89 -55
-126 -22 -48 -29 -75 -26 -100 4 -27 3 -29 -5 -13 -8 17 -9 17 -7 2 3 -26 22
-17 22 10 -1 26 10 18 19 -12 3 -11 4 -5 2 13 -3 37 10 31 17 -8 l4 -25 2 26
c1 25 3 26 54 24 28 -1 58 3 66 9 11 8 13 8 7 -1 -4 -7 -2 -13 3 -13 19 0 103
121 723 1047 38 56 72 105 77 107 5 3 14 -8 21 -24 7 -17 14 -29 16 -27 6 6
-53 132 -109 231 -171 305 -394 555 -647 724 -268 178 -585 260 -895 230z
m373 -2198 c-7 -10 -14 -17 -17 -15 -4 4 18 35 25 35 2 0 -1 -9 -8 -20z m-197
-123 c-10 -9 -11 -8 -5 6 3 10 9 15 12 12 3 -3 0 -11 -7 -18z"/>
<path d="M4022 6737 c-8 -9 -4 -34 14 -92 14 -44 25 -92 25 -107 0 -40 14 -42
50 -10 31 27 34 57 5 46 -26 -10 -26 25 1 45 28 23 43 20 43 -9 0 -31 15 -31
53 -2 39 29 44 54 12 57 -11 1 -51 21 -90 44 -74 43 -96 49 -113 28z m80 -89
c-13 -13 -32 -2 -32 18 0 12 4 13 21 3 14 -7 18 -14 11 -21z"/>
<path d="M6103 6710 c-22 -13 -36 -32 -44 -61 -11 -37 -11 -46 7 -78 22 -42
82 -76 119 -67 35 9 32 36 -3 36 -41 0 -72 26 -72 61 0 37 39 79 74 79 33 0
59 -39 50 -74 -5 -21 -3 -26 13 -26 18 0 43 36 43 61 0 6 -18 28 -41 50 -47
45 -93 52 -146 19z"/>
<path d="M4508 6659 c-32 -16 -58 -32 -58 -34 0 -5 119 52 129 61 13 12 -22
-1 -71 -27z"/>
<path d="M3886 6611 c-29 -31 -29 -52 2 -44 10 2 27 -6 41 -21 l23 -25 -60 18
-60 19 -31 -32 c-32 -33 -32 -46 0 -46 22 0 104 -86 104 -108 0 -25 25 -26 51
-1 30 28 31 49 1 49 -13 0 -38 15 -57 35 -19 19 -31 35 -29 35 3 0 32 -9 64
-20 124 -43 145 -16 59 71 -32 33 -59 67 -59 76 0 27 -19 25 -49 -6z"/>
<path d="M4375 6584 c-141 -85 -336 -264 -467 -429 -73 -92 -174 -247 -237
-365 -53 -100 -144 -310 -137 -317 2 -2 11 14 20 37 9 22 18 40 20 40 3 0 35
-39 73 -87 37 -49 70 -90 73 -93 3 -3 35 -43 70 -90 36 -46 72 -94 82 -105 33
-40 114 -144 133 -171 11 -15 36 -47 55 -69 19 -23 101 -125 181 -226 194
-244 182 -233 278 -234 74 -1 78 0 73 20 -5 18 -3 17 17 -5 l23 -25 -16 25
c-19 29 -21 43 -3 35 6 -4 4 0 -5 8 -10 8 -14 18 -10 22 4 5 -1 5 -10 2 -10
-3 -20 -1 -24 5 -4 6 -3 8 4 4 6 -3 13 -2 17 4 3 5 1 10 -6 10 -7 0 -10 3 -6
6 6 6 -12 43 -231 459 -57 110 -132 252 -165 315 -33 63 -79 151 -102 195 -23
44 -73 139 -110 210 -37 72 -83 158 -101 192 -19 34 -34 66 -34 71 0 18 185
252 200 252 6 0 56 -116 110 -255 15 -38 71 -178 125 -310 54 -132 121 -298
150 -370 29 -71 88 -215 130 -320 43 -104 93 -228 112 -275 19 -47 37 -91 40
-97 3 -7 9 -10 14 -7 5 3 6 -1 3 -9 -3 -8 11 -50 30 -93 l35 -79 63 0 c58 0
63 2 64 22 1 13 -3 20 -8 17 -6 -4 -6 9 -2 31 4 22 3 36 -2 32 -5 -3 -9 7 -10
21 -1 32 -6 59 -44 222 -16 69 -72 314 -125 545 -96 419 -126 549 -231 999
-30 131 -53 245 -50 252 7 18 10 19 -59 -22z m64 -2082 c-1 -15 -2 -15 -6 1
-2 9 -9 14 -15 11 -7 -4 -8 -2 -4 5 10 15 26 4 25 -17z m18 -9 c-3 -10 -5 -4
-5 12 0 17 2 24 5 18 2 -7 2 -21 0 -30z m132 28 c0 -3 -5 -15 -10 -26 -9 -19
-9 -18 -5 3 2 12 0 20 -5 16 -5 -3 -9 -13 -10 -22 0 -12 -3 -11 -9 6 -5 12
-12 22 -15 22 -4 0 -4 -10 -1 -22 3 -13 3 -17 0 -9 -5 11 -8 11 -16 0 -6 -10
-7 -7 -3 9 3 12 4 22 0 22 -3 0 -10 -10 -15 -22 -8 -21 -9 -22 -10 -3 l-1 20
-9 -20 c-8 -18 -9 -17 -7 5 1 24 4 25 59 26 32 0 58 -2 57 -5z m222 -5 c0 19
1 19 8 0 7 -19 8 -19 15 0 7 19 8 19 22 0 14 -20 14 -20 14 0 0 15 4 12 15
-10 9 -16 13 -31 10 -34 -3 -3 -5 1 -5 9 0 11 -2 11 -10 -1 -7 -11 -10 -11
-10 -2 0 8 -5 10 -12 5 -14 -8 -81 -13 -73 -5 3 3 0 11 -6 18 -6 7 -7 19 -3
25 5 9 11 7 21 -6 13 -18 13 -18 14 1z"/>
<path d="M4780 4514 c0 -6 6 -16 13 -21 14 -11 57 -11 57 0 0 30 -1 31 -9 18
-13 -21 -39 -22 -51 -3 -5 10 -10 12 -10 6z"/>
<path d="M6305 6509 c-38 -15 -80 -28 -92 -29 -33 0 -35 -14 -5 -50 26 -30 28
-31 42 -15 8 10 14 21 13 24 -8 17 32 3 44 -16 14 -21 14 -23 -11 -33 -32 -12
-32 -13 0 -56 29 -38 54 -44 54 -14 0 11 19 58 42 104 35 71 40 87 29 100 -18
21 -33 19 -116 -15z m45 -49 c-9 -17 -15 -19 -23 -10 -9 9 -7 15 7 26 25 18
31 12 16 -16z"/>
<path d="M3715 6406 c-81 -36 -103 -130 -44 -192 62 -66 176 -23 195 74 16 77
-78 151 -151 118z m74 -72 c17 -14 31 -35 31 -47 0 -21 -26 -57 -43 -57 -26 0
-77 35 -87 60 -27 65 39 95 99 44z"/>
<path d="M6560 6296 c-12 -33 -96 -89 -121 -83 -33 9 -33 -19 0 -67 44 -63 76
-86 123 -86 53 0 108 51 108 101 0 33 -72 159 -91 159 -5 0 -14 -11 -19 -24z
m54 -82 c26 -67 -52 -133 -107 -91 -28 21 -23 35 28 71 55 40 70 44 79 20z"/>
<path d="M3547 6199 c-29 -42 -28 -64 3 -54 26 8 130 -61 130 -86 0 -30 23
-21 52 21 21 30 24 41 14 49 -8 7 -16 7 -22 1 -13 -13 -120 63 -127 90 -7 29
-18 24 -50 -21z"/>
<path d="M3480 6089 c0 -6 -11 -24 -25 -41 -29 -34 -31 -66 -10 -112 28 -59
96 -81 155 -51 53 27 77 108 46 151 -19 25 -31 12 -28 -33 5 -67 -56 -96 -112
-52 -48 38 -28 99 32 99 32 0 36 29 6 40 -34 13 -64 13 -64 -1z"/>
<path d="M6710 6083 c0 -21 -99 -78 -136 -78 -13 0 -24 -4 -24 -10 -1 -17 74
-147 87 -152 7 -3 29 -2 48 1 41 8 49 36 10 36 -25 0 -75 39 -75 59 0 10 31
31 45 31 4 0 4 -13 0 -30 -8 -36 1 -38 49 -9 35 20 40 48 9 45 -22 -1 -28 20
-7 28 30 11 47 -14 40 -61 -7 -50 8 -57 43 -19 l23 24 -44 76 c-41 73 -68 96
-68 59z"/>
<path d="M3334 5804 c-6 -22 2 -35 60 -93 36 -36 66 -72 66 -79 0 -24 28 -12
40 18 16 38 14 45 -13 45 -18 0 -22 5 -20 29 3 43 21 56 40 29 9 -13 19 -23
24 -23 7 0 36 58 42 86 1 4 -51 8 -115 10 l-118 4 -6 -26z m106 -43 c0 -17
-15 -19 -35 -5 -18 13 -18 14 8 14 15 0 27 -4 27 -9z"/>
<path d="M6873 5761 c-7 -26 -110 -65 -146 -56 -31 8 -33 1 -12 -49 17 -40 34
-47 42 -17 4 17 80 58 89 48 2 -1 -22 -22 -52 -46 -30 -24 -53 -48 -51 -54 3
-8 30 -11 83 -9 l79 2 -45 -21 c-30 -14 -50 -17 -60 -11 -8 5 -20 7 -27 5 -14
-5 11 -81 33 -99 8 -6 11 -13 8 -16 -3 -3 -2 -22 1 -42 8 -39 27 -47 44 -18
10 16 12 16 26 -2 24 -32 16 -78 -9 -56 -7 5 -17 5 -24 1 -10 -6 -11 -17 -1
-54 6 -26 16 -47 21 -47 5 0 6 -5 3 -10 -8 -13 12 -104 32 -142 42 -84 178
-67 198 24 9 37 -23 168 -40 168 -7 0 -15 -8 -17 -18 -7 -24 -136 -52 -148
-32 -14 22 -1 37 76 95 41 31 74 61 74 68 -1 30 -21 40 -106 48 -110 11 -114
13 -114 42 0 20 11 28 64 49 46 18 67 23 75 15 8 -8 14 -8 22 0 7 7 5 23 -7
53 l-17 42 -59 -4 c-32 -2 -58 -1 -58 3 0 3 18 19 40 34 44 31 47 40 26 90
-16 39 -35 45 -43 16z m87 -396 c-7 -8 -16 -15 -21 -15 -5 0 -9 7 -9 15 0 9 9
15 21 15 18 0 19 -2 9 -15z m108 -226 c4 -32 -37 -69 -77 -69 -32 0 -44 8 -60
37 -13 26 -6 33 59 49 62 16 75 13 78 -17z"/>
<path d="M3260 5640 c-15 -44 -8 -60 18 -43 13 8 26 7 47 -2 l30 -12 -50 -7
c-66 -9 -76 -16 -91 -58 -10 -30 -10 -37 1 -41 7 -3 17 -1 23 5 15 15 134 -31
140 -54 2 -10 10 -18 17 -18 14 0 46 70 38 83 -6 10 -33 9 -33 -2 0 -6 -20 -3
-45 6 -25 8 -43 18 -40 22 2 5 32 11 66 15 116 12 119 43 7 82 -54 19 -83 35
-86 46 -8 31 -28 20 -42 -22z"/>
<path d="M6640 5575 c0 -5 5 -17 10 -25 5 -8 10 -10 10 -5 0 6 -5 17 -10 25
-5 8 -10 11 -10 5z"/>
<path d="M6660 5528 c0 -4 9 -30 20 -58 11 -28 20 -59 20 -69 0 -9 -142 -190
-315 -401 -173 -211 -312 -387 -310 -391 3 -4 0 -11 -6 -15 -8 -5 -9 -3 -4 7
8 12 6 12 -9 0 -9 -8 -15 -20 -12 -28 3 -8 2 -12 -3 -9 -4 3 -17 -5 -29 -18
-20 -23 -20 -24 -1 -29 11 -3 19 0 19 6 0 7 5 5 10 -3 9 -13 10 -13 10 0 0 13
1 13 10 0 9 -13 10 -13 10 0 0 13 1 13 10 0 9 -13 10 -13 10 0 0 13 1 13 10 0
9 -13 10 -13 10 0 0 13 1 13 10 0 9 -13 10 -13 10 0 0 12 2 13 9 1 7 -11 9
-11 14 0 4 11 6 11 6 -1 1 -13 2 -13 11 0 9 13 10 13 10 0 0 -13 1 -13 10 0 9
13 10 13 10 0 0 -13 1 -13 10 0 9 13 10 13 10 0 0 -13 1 -13 10 0 7 11 10 11
10 2 0 -8 5 -10 13 -5 16 10 117 11 111 1 -3 -5 -9 -6 -14 -3 -5 3 -13 -3 -19
-12 -8 -14 -10 -15 -11 -3 0 13 -1 13 -10 0 -9 -13 -10 -13 -10 0 0 13 -1 13
-10 0 -9 -13 -10 -13 -10 0 0 13 -1 13 -10 0 -9 -13 -10 -13 -10 0 0 13 -1 13
-10 0 -9 -13 -10 -13 -10 0 0 13 -1 13 -10 0 -9 -13 -10 -13 -10 0 0 13 -1 13
-10 0 -9 -13 -10 -13 -10 0 0 13 -1 13 -10 0 -9 -13 -10 -13 -10 0 0 13 -1 13
-10 0 -9 -13 -10 -13 -10 0 0 13 -1 13 -10 0 -9 -13 -10 -13 -10 0 0 13 -1 13
-10 0 -9 -13 -10 -13 -10 0 0 13 -1 13 -10 0 -9 -13 -10 -13 -10 0 0 13 -1 13
-10 0 -9 -13 -10 -13 -10 0 0 13 -1 13 -10 0 -9 -13 -10 -13 -10 0 0 13 -1 13
-10 0 -8 -13 -10 -13 -10 -1 0 12 -3 11 -12 -2 -10 -13 -17 -14 -28 -6 -13 9
-12 10 3 5 9 -3 17 -1 17 4 0 6 -6 10 -13 10 -16 0 -37 -20 -37 -35 0 -5 5 -3
10 5 5 8 10 10 10 5 0 -7 60 -10 166 -10 152 0 167 2 180 19 8 11 14 17 14 13
0 -9 115 70 220 153 184 144 262 201 267 196 3 -3 11 -45 19 -93 12 -77 13
-80 9 -23 -12 165 -74 439 -145 645 -39 112 -59 160 -60 143z"/>
<path d="M3496 5384 c-9 -26 -16 -52 -15 -58 0 -6 9 13 20 43 10 30 17 56 15
58 -2 2 -11 -17 -20 -43z"/>
<path d="M3195 5311 c-11 -5 -27 -17 -37 -27 -16 -18 -48 -124 -48 -158 0 -18
26 -22 32 -4 6 17 148 -20 148 -38 0 -32 30 -12 40 28 30 109 13 165 -57 194
-36 16 -49 16 -78 5z m70 -65 c37 -16 57 -58 36 -79 -13 -13 -132 12 -138 30
-5 14 40 63 57 63 6 0 26 -6 45 -14z"/>
<path d="M3448 5220 c-37 -129 -55 -212 -78 -355 -20 -120 -25 -197 -12 -163
6 15 17 11 80 -28 40 -24 78 -45 84 -47 6 -1 18 -8 27 -15 38 -33 127 -82 139
-77 7 3 11 1 8 -4 -3 -5 1 -12 10 -15 10 -4 13 -2 9 7 -4 6 3 1 14 -13 11 -14
21 -21 21 -16 0 5 9 -1 20 -14 11 -13 20 -19 20 -14 0 5 69 9 156 9 153 0 157
1 165 23 11 29 1 29 -11 0 -8 -21 -9 -22 -10 -3 l-1 20 -9 -20 -9 -20 0 20
c-1 17 -3 17 -11 5 -9 -13 -10 -13 -10 0 0 13 -1 13 -10 0 -9 -13 -10 -13 -10
0 0 13 -1 13 -10 0 -9 -13 -10 -13 -10 0 0 13 -1 13 -10 0 -9 -13 -10 -13 -10
0 0 13 -1 13 -10 0 -9 -13 -10 -13 -10 0 0 13 -1 13 -10 0 -9 -13 -10 -13 -10
0 0 13 -1 13 -10 0 -9 -13 -10 -13 -10 0 0 13 -1 13 -10 0 -9 -13 -10 -13 -10
0 0 13 -2 13 -9 1 -13 -20 -41 -23 -48 -4 -5 12 -7 12 -14 1 -7 -10 -9 -10 -9
2 0 13 -1 13 -10 0 -8 -13 -10 -13 -10 -1 0 11 -4 9 -15 -5 -15 -19 -15 -19
-8 0 5 15 3 18 -10 13 -10 -4 -17 -2 -17 4 0 6 9 9 20 6 11 -3 20 0 20 6 0 7
5 5 10 -3 9 -13 10 -13 10 0 0 12 2 12 9 1 6 -9 11 -10 15 -2 5 7 15 7 31 1
24 -9 30 -6 25 15 -1 5 7 1 18 -8 12 -11 23 -14 26 -9 7 11 24 11 44 -1 7 -5
12 -3 12 5 0 10 2 10 9 -1 5 -8 11 -9 15 -3 7 11 24 11 43 -1 6 -4 14 -1 16 5
4 10 6 10 6 0 1 -8 6 -10 14 -5 16 10 38 13 33 4 -3 -4 6 -7 20 -7 13 0 24 3
24 7 0 14 -67 79 -75 72 -4 -5 -6 -3 -2 2 3 6 -1 19 -9 30 -8 10 -14 15 -14 9
0 -5 -8 4 -19 19 -10 16 -83 94 -162 175 -328 334 -418 432 -421 460 -2 19
-11 -2 -30 -68z m299 -712 c-3 -8 -6 -5 -6 6 -1 11 2 17 5 13 3 -3 4 -12 1
-19z"/>
<path d="M3276 5053 c-4 -5 -49 -17 -99 -28 -87 -19 -92 -22 -95 -47 -3 -24 5
-32 77 -73 44 -26 82 -53 85 -61 11 -29 34 -14 41 27 8 47 2 58 -25 42 -27
-17 -44 5 -30 41 11 30 22 33 40 11 18 -22 29 -7 36 48 5 38 4 47 -8 47 -8 0
-18 -3 -22 -7z m-86 -99 c0 -11 -5 -14 -16 -10 -9 3 -18 6 -20 6 -3 0 -2 5 1
10 10 16 35 12 35 -6z"/>
<path d="M7107 4986 c-7 -18 -140 -42 -145 -27 -2 6 -12 11 -23 11 -17 0 -19
-5 -14 -37 4 -21 9 -46 12 -55 5 -21 33 -24 33 -4 0 14 48 32 58 21 3 -3 -14
-25 -37 -49 -39 -40 -43 -48 -37 -79 3 -19 8 -76 10 -127 3 -51 8 -96 14 -102
5 -5 25 -11 45 -15 44 -7 49 8 12 40 -15 13 -27 34 -28 52 -2 26 2 30 26 33
29 4 39 -21 12 -32 -8 -3 -15 -10 -15 -16 0 -16 92 -8 98 8 2 6 -3 12 -11 12
-8 0 -17 6 -20 14 -7 18 34 30 45 13 11 -16 0 -58 -20 -80 -23 -26 -3 -38 36
-21 l34 14 -7 67 c-8 91 -13 113 -27 113 -6 0 -16 -6 -22 -14 -15 -18 -146
-30 -147 -13 -3 32 5 54 28 79 24 26 25 26 44 7 40 -40 99 -14 99 43 0 60 -22
158 -35 158 -7 0 -15 -6 -18 -14z m13 -111 c0 -28 -4 -35 -20 -35 -13 0 -24
10 -30 26 -13 32 -6 44 26 44 21 0 24 -5 24 -35z"/>
<path d="M3077 4804 c-26 -26 -31 -41 -41 -136 -6 -52 6 -68 32 -45 20 17 143
8 150 -11 2 -7 9 -12 17 -12 23 0 34 129 14 173 -27 59 -126 77 -172 31z m121
-50 c15 -10 22 -25 22 -46 l0 -31 -52 7 c-29 3 -61 6 -70 6 -23 0 -24 42 -2
64 20 20 73 20 102 0z"/>
<path d="M3343 4630 c0 -30 2 -43 4 -27 2 15 2 39 0 55 -2 15 -4 2 -4 -28z"/>
<path d="M6872 4618 c-1 -31 -6 -60 -12 -63 -5 -3 -10 -12 -10 -18 0 -7 4 -6
10 3 6 9 10 10 10 3 0 -6 -4 -14 -10 -18 -5 -3 -7 -12 -4 -19 3 -8 1 -17 -5
-21 -7 -4 -8 1 -5 12 6 15 4 15 -10 -2 -15 -19 -16 -19 -9 -1 5 16 3 18 -11
13 -11 -4 -15 -3 -11 4 4 6 14 8 22 5 9 -4 11 -2 7 6 -4 7 -3 8 4 4 8 -5 10
-1 5 10 -4 11 -8 13 -11 6 -2 -7 -8 -12 -14 -12 -15 0 -35 -23 -35 -41 0 -11
9 -15 26 -14 14 1 32 -3 40 -9 11 -8 13 -8 7 2 -4 6 -3 12 2 12 12 0 21 -105
22 -259 0 -69 3 -127 5 -130 8 -7 3 436 -5 514 l-7 70 -1 -57z m-52 -124 c0
-8 -19 -13 -24 -6 -3 5 1 9 9 9 8 0 15 -2 15 -3z"/>
<path d="M3028 4535 c-3 -47 0 -55 15 -55 9 0 17 5 17 10 0 6 30 10 70 10 54
0 72 -4 76 -15 5 -12 32 -22 35 -12 0 1 3 23 6 48 5 51 -11 75 -31 46 -15 -19
-135 -13 -152 9 -21 27 -32 14 -36 -41z"/>
<path d="M3334 4325 c0 -204 1 -215 3 -60 3 136 7 191 16 197 9 6 9 8 0 8 -7
0 -13 21 -16 53 -2 28 -3 -60 -3 -198z"/>
<path d="M3856 4506 c3 -7 11 -13 19 -13 22 0 18 14 -4 20 -13 3 -18 0 -15 -7z"/>
<path d="M5072 4508 c-7 -7 -12 -19 -11 -27 0 -10 4 -7 10 7 5 14 13 20 20 16
8 -4 9 -3 5 4 -9 15 -9 15 -24 0z"/>
<path d="M5307 4490 c-2 -10 2 -17 10 -17 8 0 12 6 9 12 -2 6 2 12 9 12 7 0
11 -6 9 -12 -3 -8 8 -12 30 -12 25 0 34 5 33 16 -1 24 -94 24 -100 1z m87 -1
c3 -3 -5 -5 -19 -5 -13 0 -22 3 -19 7 4 8 30 6 38 -2z"/>
<path d="M5672 4490 c0 -14 2 -19 5 -12 2 6 2 18 0 25 -3 6 -5 1 -5 -13z"/>
<path d="M5692 4490 c0 -14 2 -19 5 -12 2 6 2 18 0 25 -3 6 -5 1 -5 -13z"/>
<path d="M5712 4490 c0 -14 2 -19 5 -12 2 6 2 18 0 25 -3 6 -5 1 -5 -13z"/>
<path d="M5732 4490 c0 -14 2 -19 5 -12 2 6 2 18 0 25 -3 6 -5 1 -5 -13z"/>
<path d="M5752 4490 c0 -14 2 -19 5 -12 2 6 2 18 0 25 -3 6 -5 1 -5 -13z"/>
<path d="M5772 4490 c0 -14 2 -19 5 -12 2 6 2 18 0 25 -3 6 -5 1 -5 -13z"/>
<path d="M6751 4487 c-8 -10 -7 -14 2 -14 8 0 14 6 14 14 0 7 -1 13 -2 13 -2
0 -8 -6 -14 -13z"/>
<path d="M3060 4438 c-34 -9 -35 -10 -37 -65 -4 -70 15 -103 57 -103 37 0 55
18 75 80 12 37 21 50 33 48 30 -6 26 -46 -7 -79 -44 -43 -41 -62 7 -53 20 4
39 8 42 10 3 1 7 33 8 70 3 78 -12 104 -63 104 -39 0 -48 -10 -72 -74 -21 -57
-43 -72 -43 -30 0 16 11 39 25 54 31 33 21 49 -25 38z"/>
<path d="M3376 4431 c-5 -7 -5 -15 -2 -18 3 -4 6 0 6 7 0 9 5 7 14 -5 8 -11
25 -20 40 -21 20 -1 23 2 16 12 -6 6 -19 11 -28 10 -9 -2 -22 4 -28 12 -8 11
-13 12 -18 3z"/>
<path d="M6980 4311 c0 -92 18 -123 80 -142 44 -13 85 -2 116 32 25 28 34 189
11 189 -9 0 -20 -7 -25 -16 -8 -14 -20 -15 -81 -9 -39 4 -71 11 -71 16 0 5 -7
9 -15 9 -12 0 -15 -15 -15 -79z m177 -17 c17 -45 -45 -86 -100 -65 -27 11 -52
54 -41 72 3 5 34 9 70 9 49 0 66 -4 71 -16z"/>
<path d="M3412 4366 c7 -8 15 -12 17 -11 5 6 -10 25 -20 25 -5 0 -4 -6 3 -14z"/>
<path d="M3443 4363 c1 -17 5 -20 19 -12 10 5 18 15 18 22 0 8 -4 6 -10 -3 -9
-13 -11 -13 -20 0 -7 12 -9 10 -7 -7z"/>
<path d="M3210 4241 c0 -5 -12 -24 -27 -41 l-26 -32 -24 26 c-27 29 -64 34
-87 10 -22 -22 -23 -204 -1 -204 7 0 18 6 22 14 5 8 36 16 76 20 56 5 68 4 73
-9 3 -8 12 -15 20 -15 10 0 14 15 14 55 0 47 -3 55 -19 55 -10 0 -21 -7 -25
-15 -7 -18 -46 -20 -46 -2 1 6 19 26 40 42 33 25 39 36 40 68 0 26 -4 37 -15
37 -8 0 -15 -4 -15 -9z m-96 -97 c13 -35 7 -54 -19 -54 -22 0 -25 4 -25 35 0
28 4 35 19 35 10 0 22 -7 25 -16z"/>
<path d="M6970 4103 c0 -21 -3 -61 -6 -90 l-7 -51 41 -21 c51 -26 63 -12 27
31 -30 36 -31 81 -1 86 29 6 43 -15 21 -31 -26 -20 -10 -37 35 -37 41 0 62 16
36 26 -25 10 -20 36 7 32 18 -2 22 -9 20 -33 -1 -17 -11 -36 -23 -44 -11 -7
-20 -20 -20 -28 0 -12 7 -14 32 -9 18 3 36 10 40 14 3 4 10 46 14 95 5 67 4
87 -6 87 -7 0 -18 -6 -24 -14 -14 -17 -137 -7 -144 12 -2 7 -12 12 -23 12 -15
0 -19 -7 -19 -37z"/>
<path d="M6873 4025 c0 -33 2 -45 4 -27 2 18 2 45 0 60 -2 15 -4 0 -4 -33z"/>
<path d="M3343 4010 c0 -30 2 -43 4 -27 2 15 2 39 0 55 -2 15 -4 2 -4 -28z"/>
<path d="M3167 3987 c-2 -6 11 -26 30 -43 29 -28 45 -74 26 -74 -5 0 -18 -3
-30 -6 -26 -7 -33 20 -8 30 33 12 14 27 -32 24 -49 -3 -71 -25 -34 -35 27 -7
22 -27 -7 -31 -17 -3 -22 2 -23 20 -2 37 2 52 18 70 21 23 -1 33 -38 17 -30
-12 -30 -13 -24 -63 18 -152 18 -151 46 -118 21 24 131 37 159 20 10 -7 21
-10 24 -7 2 2 -1 45 -7 94 l-12 89 -42 12 c-31 9 -43 10 -46 1z"/>
<path d="M6851 3859 c-7 -56 -10 -103 -8 -106 3 -2 10 41 17 97 7 55 11 102 9
105 -3 2 -11 -41 -18 -96z"/>
<path d="M3351 3925 c-2 -70 70 -440 99 -505 l11 -25 -6 25 c-3 14 -19 81 -35
150 -16 69 -38 184 -49 255 -10 72 -20 117 -20 100z"/>
<path d="M6932 3740 c-10 -58 -10 -76 2 -104 19 -45 52 -66 103 -66 67 0 92
29 109 125 7 43 11 81 9 84 -3 2 -16 -1 -28 -8 -30 -16 -137 2 -150 24 -18 33
-33 14 -45 -55z m161 -37 c20 -5 16 -37 -8 -62 -16 -16 -65 -17 -94 -1 -22 12
-37 52 -26 70 7 11 80 7 128 -7z"/>
<path d="M3666 3785 c4 -8 10 -12 15 -9 11 6 2 24 -11 24 -5 0 -7 -7 -4 -15z"/>
<path d="M3064 3724 c3 -9 6 -23 6 -32 0 -9 5 -24 10 -32 9 -13 12 -13 24 2
10 14 23 16 64 11 29 -3 52 -9 52 -12 0 -13 -94 -63 -98 -52 -2 6 -11 11 -19
11 -13 0 -14 -8 -8 -47 9 -61 21 -74 43 -47 9 12 50 42 90 67 72 46 88 72 60
94 -7 6 -50 16 -96 23 -45 7 -85 16 -88 21 -3 5 -14 9 -26 9 -14 0 -18 -5 -14
-16z"/>
<path d="M6805 3603 c-36 -166 -37 -174 -26 -147 14 33 62 254 59 271 -2 8
-16 -48 -33 -124z"/>
<path d="M6891 3533 c-6 -21 -11 -46 -11 -55 0 -19 26 -25 32 -7 6 17 137 -20
149 -42 16 -30 25 -22 37 32 13 57 10 69 -16 53 -23 -14 -140 15 -153 39 -15
27 -27 20 -38 -20z"/>
<path d="M3297 3527 c-7 -19 -139 -51 -148 -36 -4 7 -14 9 -22 6 -13 -5 -14
-12 -3 -54 12 -49 41 -71 48 -37 4 25 123 58 149 41 26 -16 29 -8 16 46 -10
45 -29 62 -40 34z"/>
<path d="M6890 3407 c-31 -15 -60 -71 -60 -115 0 -25 9 -43 34 -68 29 -29 41
-34 81 -34 38 0 52 5 75 28 35 35 47 91 29 133 -23 58 -101 85 -159 56z m84
-57 c63 -23 55 -100 -10 -100 -58 0 -94 25 -94 67 0 38 50 54 104 33z"/>
<path d="M3275 3379 c-37 -12 -73 -17 -94 -14 l-33 6 7 -38 c3 -21 10 -42 15
-47 11 -11 30 1 30 20 0 8 6 14 14 14 8 0 23 3 33 6 10 4 -1 -13 -25 -38 -43
-45 -43 -46 -32 -87 12 -44 24 -51 39 -23 14 27 140 60 152 41 6 -10 11 -11
20 -2 8 8 8 20 -1 47 -11 34 -40 51 -40 23 0 -12 -59 -37 -86 -37 -4 0 16 24
45 54 34 34 52 60 49 72 -4 25 -22 26 -93 3z"/>
<path d="M6790 3175 c0 -8 -9 -32 -20 -52 -25 -47 -25 -64 1 -97 31 -40 64
-34 112 19 37 41 67 58 67 37 0 -17 -33 -54 -56 -62 -39 -15 -30 -40 14 -40
35 0 38 3 60 51 21 44 22 55 12 80 -24 56 -84 49 -129 -16 -13 -19 -32 -35
-42 -35 -39 0 -12 56 37 76 42 18 44 40 3 48 -47 9 -59 7 -59 -9z"/>
<path d="M3305 3138 c-32 -12 -51 -16 -53 -9 -5 16 -32 13 -32 -3 0 -7 5 -27
11 -45 12 -34 34 -41 41 -13 3 12 26 24 67 37 68 20 84 14 79 -30 -3 -24 -107
-70 -123 -54 -14 14 -35 11 -35 -6 0 -24 31 -95 42 -95 5 0 12 9 15 19 3 12
26 27 64 41 35 13 66 31 75 46 34 51 -13 135 -75 133 -14 -1 -48 -10 -76 -21z"/>
<path d="M4468 3023 c7 -3 16 -2 19 1 4 3 -2 6 -13 5 -11 0 -14 -3 -6 -6z"/>
<path d="M4618 2993 c7 -3 16 -2 19 1 4 3 -2 6 -13 5 -11 0 -14 -3 -6 -6z"/>
<path d="M3709 7191 c11 -7 10 -15 -10 -42 -43 -63 -161 -204 -251 -302 -90
-98 -92 -99 -235 -168 -79 -38 -177 -89 -218 -114 -40 -25 -77 -45 -80 -45 -7
0 8 28 51 96 10 16 13 25 7 19 -17 -16 -93 -139 -88 -143 2 -3 33 14 68 36 35
22 141 79 236 127 163 81 177 90 246 163 97 103 194 218 248 294 62 89 62 88
35 88 -17 0 -19 -3 -9 -9z"/>
<path d="M6500 7194 c0 -12 91 -134 173 -231 90 -108 194 -215 223 -231 11 -6
-28 38 -86 96 -107 108 -196 213 -264 310 l-36 52 42 -4 c36 -4 38 -4 13 3
-38 11 -65 13 -65 5z"/>
<path d="M6608 7173 c7 -3 16 -2 19 1 4 3 -2 6 -13 5 -11 0 -14 -3 -6 -6z"/>
<path d="M6905 7056 c82 -66 126 -107 167 -155 100 -118 109 -123 19 -9 -47
59 -150 152 -191 172 -8 4 -6 0 5 -8z"/>
<path d="M2587 6677 c-121 -195 -180 -305 -207 -387 -39 -115 -19 -293 62
-542 17 -54 34 -98 37 -98 3 0 16 41 28 91 15 61 49 146 102 258 115 240 126
280 126 476 0 154 -24 337 -45 350 -5 3 -51 -64 -103 -148z"/>
<path d="M7540 6826 c0 -3 -7 -36 -15 -74 -27 -128 -37 -281 -25 -375 15 -122
41 -198 131 -388 44 -92 89 -205 102 -255 l24 -89 16 38 c26 60 76 244 92 337
29 167 17 240 -66 400 -92 175 -259 437 -259 406z"/>
<path d="M7165 6780 c5 -8 32 -51 60 -95 85 -130 106 -165 100 -165 -2 0 -37
19 -77 43 -98 57 -308 160 -314 154 -3 -3 54 -34 128 -69 73 -36 170 -88 216
-116 45 -28 82 -49 82 -46 0 7 -180 288 -192 299 -8 7 -8 5 -3 -5z"/>
<path d="M3128 6574 c-27 -13 -48 -27 -48 -29 0 -3 22 6 50 20 27 14 51 25 53
25 2 0 2 -12 -1 -27 -6 -35 3 -27 12 10 8 34 -3 34 -66 1z"/>
<path d="M7041 6583 c0 -10 4 -27 9 -38 6 -15 8 -11 7 17 -1 21 -5 38 -9 38
-5 0 -8 -8 -7 -17z"/>
<path d="M7090 6576 c0 -3 25 -17 56 -33 151 -76 282 -217 381 -407 29 -56 52
-97 53 -93 1 21 -105 209 -153 272 -62 82 -164 171 -259 226 -64 38 -78 44
-78 35z"/>
<path d="M2994 6491 c-119 -84 -222 -207 -298 -358 -43 -87 -29 -74 20 17 82
153 181 268 298 346 50 33 63 44 53 44 -2 0 -35 -22 -73 -49z"/>
<path d="M3145 6443 c-81 -242 -181 -376 -379 -508 -62 -41 -134 -93 -159
-116 -26 -22 -47 -37 -47 -32 0 13 -20 -21 -20 -35 0 -7 23 10 52 38 29 28
102 85 163 126 183 121 249 191 328 349 37 76 99 243 95 257 -2 5 -16 -31 -33
-79z"/>
<path d="M7060 6513 c0 -16 47 -150 60 -170 13 -21 15 -28 -27 97 -25 74 -33
93 -33 73z"/>
<path d="M7130 6317 c0 -13 51 -110 90 -167 52 -77 127 -144 255 -230 61 -40
137 -99 169 -129 33 -31 57 -49 54 -41 -30 84 -91 230 -94 227 -2 -2 12 -43
31 -91 19 -48 35 -92 35 -98 0 -6 -17 6 -37 27 -21 20 -85 68 -143 107 -58 39
-124 87 -148 106 -52 43 -139 157 -180 237 -17 33 -31 56 -32 52z"/>
<path d="M2652 6035 c-17 -37 -14 -45 4 -12 9 16 14 31 11 33 -2 2 -9 -7 -15
-21z"/>
<path d="M2277 6033 c-9 -15 -88 -225 -123 -328 -108 -315 -76 -551 103 -775
103 -129 100 -129 95 8 -3 101 1 143 32 311 55 296 49 456 -22 633 -36 88 -78
163 -85 151z"/>
<path d="M7905 5948 c-68 -144 -87 -228 -88 -383 -1 -109 4 -158 33 -305 28
-143 35 -199 35 -303 0 -70 1 -127 3 -127 10 0 99 105 139 164 135 200 153
406 61 696 -30 94 -123 339 -133 348 -3 3 -25 -38 -50 -90z"/>
<path d="M7580 6025 c0 -5 5 -17 10 -25 5 -8 10 -10 10 -5 0 6 -5 17 -10 25
-5 8 -10 11 -10 5z"/>
<path d="M2626 5975 c-9 -26 -7 -32 5 -12 6 10 9 21 6 23 -2 3 -7 -2 -11 -11z"/>
<path d="M2597 5898 c-9 -23 -15 -43 -13 -45 2 -2 11 15 20 38 9 23 15 43 13
45 -2 2 -11 -15 -20 -38z"/>
<path d="M2760 5893 c-85 -56 -191 -170 -233 -251 -20 -38 -37 -74 -37 -78 0
-5 16 19 34 54 43 79 77 124 140 185 45 44 127 107 140 107 2 0 7 -12 9 -27 3
-23 4 -21 6 10 0 20 0 37 -2 37 -1 0 -27 -16 -57 -37z"/>
<path d="M7418 5888 c2 -24 7 -46 11 -50 3 -4 5 10 3 32 -2 22 -1 40 2 40 4 0
30 -17 59 -39 62 -46 142 -129 182 -189 30 -45 43 -56 24 -19 -39 72 -146 181
-249 250 -34 24 -36 22 -32 -25z"/>
<path d="M2795 5790 c-4 -34 -5 -63 -2 -66 2 -3 7 23 11 57 4 33 5 63 3 66 -3
2 -8 -23 -12 -57z"/>
<path d="M2566 5825 c-9 -26 -7 -32 5 -12 6 10 9 21 6 23 -2 3 -7 -2 -11 -11z"/>
<path d="M7436 5769 c3 -31 10 -71 14 -90 7 -26 8 -20 4 22 -3 31 -10 71 -14
90 -7 26 -8 20 -4 -22z"/>
<path d="M2782 5685 c0 -16 2 -22 5 -12 2 9 2 23 0 30 -3 6 -5 -1 -5 -18z"/>
<path d="M2765 5610 c-4 -23 -5 -43 -2 -46 2 -3 7 14 11 37 4 23 5 44 2 46 -2
2 -7 -14 -11 -37z"/>
<path d="M7462 5615 c0 -16 2 -22 5 -12 2 9 2 23 0 30 -3 6 -5 -1 -5 -18z"/>
<path d="M7716 5617 c3 -10 9 -15 12 -12 3 3 0 11 -7 18 -10 9 -11 8 -5 -6z"/>
<path d="M7736 5570 c3 -14 11 -32 16 -40 6 -10 7 -7 2 10 -3 14 -11 32 -16
40 -6 10 -7 7 -2 -10z"/>
<path d="M7476 5545 c10 -68 53 -186 97 -265 31 -56 72 -105 162 -193 113
-111 140 -127 116 -66 l-10 24 0 -25 c-1 -22 -12 -14 -92 65 -148 147 -204
238 -255 415 -13 47 -21 67 -18 45z"/>
<path d="M2750 5537 c0 -9 -13 -55 -29 -104 -33 -98 -35 -125 -2 -39 28 75 45
145 37 153 -3 4 -6 -1 -6 -10z"/>
<path d="M2456 5451 c-9 -38 -16 -80 -15 -93 0 -13 9 17 20 67 22 106 18 127
-5 26z"/>
<path d="M7766 5485 c3 -16 12 -64 20 -105 l14 -75 -6 62 c-2 34 -11 81 -19
105 -8 24 -12 30 -9 13z"/>
<path d="M2433 5290 c0 -25 2 -35 4 -22 2 12 2 32 0 45 -2 12 -4 2 -4 -23z"/>
<path d="M2633 5247 c-44 -67 -228 -251 -242 -242 -5 2 -11 -4 -14 -15 -5 -20
-5 -20 22 -1 48 35 235 236 259 279 34 61 23 52 -25 -21z"/>
<path d="M7803 5255 c0 -22 2 -30 4 -17 2 12 2 30 0 40 -3 9 -5 -1 -4 -23z"/>
<path d="M2422 5210 c0 -19 2 -27 5 -17 2 9 2 25 0 35 -3 9 -5 1 -5 -18z"/>
<path d="M7812 5180 c0 -19 2 -27 5 -17 2 9 2 25 0 35 -3 9 -5 1 -5 -18z"/>
<path d="M2417 5163 c-7 -12 -20 -109 -14 -103 6 6 26 110 21 110 -1 0 -5 -3
-7 -7z"/>
<path d="M7822 5098 c5 -23 12 -45 15 -48 3 -3 3 6 0 20 -4 14 -7 35 -7 48 0
12 -4 22 -9 22 -5 0 -5 -18 1 -42z"/>
<path d="M2027 5013 c-32 -226 -40 -367 -28 -464 26 -201 93 -336 259 -524 23
-26 44 -46 46 -44 2 2 0 33 -5 69 -8 63 1 190 21 315 14 89 12 261 -5 332 -28
119 -94 239 -205 373 -28 33 -54 60 -59 60 -4 0 -15 -53 -24 -117z"/>
<path d="M8135 5078 c-98 -109 -179 -251 -211 -369 -23 -86 -23 -242 0 -398
13 -85 17 -157 14 -230 l-5 -105 55 59 c177 195 253 377 253 611 0 116 -35
444 -50 472 -6 10 -21 -1 -56 -40z"/>
<path d="M2578 5063 c-30 -32 -69 -80 -87 -106 -36 -53 -75 -136 -68 -144 3
-2 10 11 17 31 25 76 163 256 196 256 8 0 14 -11 15 -27 0 -16 3 -22 6 -15 6
17 -5 62 -16 62 -4 0 -33 -26 -63 -57z"/>
<path d="M7581 5093 c1 -25 2 -26 7 -6 l7 22 31 -27 c53 -45 126 -143 161
-217 19 -38 31 -59 27 -45 -19 72 -116 215 -182 270 -45 37 -52 37 -51 3z"/>
<path d="M7572 5030 c0 -19 2 -27 5 -17 2 9 2 25 0 35 -3 9 -5 1 -5 -18z"/>
<path d="M2391 5034 c0 -11 3 -14 6 -6 3 7 2 16 -1 19 -3 4 -6 -2 -5 -13z"/>
<path d="M2664 4955 c6 -46 12 -83 14 -80 7 6 -9 165 -17 165 -3 0 -2 -38 3
-85z"/>
<path d="M7563 4940 c0 -25 2 -35 4 -22 2 12 2 32 0 45 -2 12 -4 2 -4 -23z"/>
<path d="M7555 4735 c2 -110 7 -174 18 -205 17 -52 23 -43 6 10 -6 19 -15 107
-19 195 l-8 160 3 -160z"/>
<path d="M2675 4749 c0 -60 3 -109 8 -109 4 0 7 47 7 104 0 58 -3 107 -7 109
-5 3 -8 -44 -8 -104z"/>
<path d="M2405 4770 c-4 -17 -5 -34 -2 -36 2 -3 7 10 11 27 8 42 0 50 -9 9z"/>
<path d="M7827 4755 c3 -22 7 -42 9 -44 8 -9 2 45 -6 64 -7 14 -8 8 -3 -20z"/>
<path d="M2392 4690 c0 -19 2 -27 5 -17 2 9 2 25 0 35 -3 9 -5 1 -5 -18z"/>
<path d="M7843 4665 c0 -22 2 -30 4 -17 2 12 2 30 0 40 -3 9 -5 -1 -4 -23z"/>
<path d="M2384 4455 c0 -110 2 -156 3 -103 2 53 2 143 0 200 -1 57 -3 13 -3
-97z"/>
<path d="M2668 4605 c-3 -14 -1 -25 3 -25 5 0 9 11 9 25 0 14 -2 25 -4 25 -2
0 -6 -11 -8 -25z"/>
<path d="M7848 4553 c-1 -27 -1 -111 2 -188 l6 -140 2 188 c2 179 -2 240 -10
140z"/>
<path d="M2642 4497 c-13 -40 -25 -79 -28 -87 -5 -13 -4 -13 5 0 15 21 53 138
49 149 -2 6 -13 -22 -26 -62z"/>
<path d="M7595 4460 c11 -38 43 -99 85 -160 38 -56 209 -244 216 -237 5 5 -30
145 -39 153 -3 3 1 -22 9 -56 8 -35 13 -65 10 -67 -5 -5 -121 124 -173 192
-21 28 -55 84 -76 125 -21 41 -35 64 -32 50z"/>
<path d="M2586 4363 c-20 -39 -90 -127 -165 -209 l-63 -69 6 45 c6 44 6 43
-13 -15 -11 -32 -19 -61 -17 -63 6 -5 174 181 213 234 38 53 66 104 59 104 -3
0 -12 -12 -20 -27z"/>
<path d="M2374 4236 c-3 -8 -4 -25 -2 -38 3 -17 5 -13 9 15 5 38 2 47 -7 23z"/>
<path d="M2554 4199 c-76 -83 -154 -220 -153 -269 0 -8 11 13 23 48 13 34 36
81 51 105 37 56 105 137 115 137 5 0 12 -15 16 -32 4 -18 9 -28 11 -22 2 7 -2
26 -9 44 l-13 32 -41 -43z"/>
<path d="M7636 4232 c-9 -14 -46 -156 -45 -172 0 -8 11 22 23 68 13 45 26 85
29 88 4 4 15 1 24 -7 15 -11 15 -10 -1 9 -21 25 -23 25 -30 14z"/>
<path d="M1974 4143 c-14 -120 -8 -351 11 -438 32 -149 96 -266 211 -379 61
-61 200 -171 278 -221 l28 -19 -30 60 c-43 86 -60 149 -87 332 -46 309 -90
424 -223 580 -46 55 -156 152 -172 152 -4 0 -12 -30 -16 -67z"/>
<path d="M8151 4134 c-186 -174 -251 -318 -301 -669 -23 -156 -55 -276 -90
-334 -12 -18 -20 -35 -18 -36 8 -8 190 131 271 206 191 177 257 338 257 634 0
176 -9 275 -25 275 -6 0 -49 -34 -94 -76z"/>
<path d="M7708 4158 c45 -55 84 -125 110 -198 14 -40 21 -52 18 -30 -9 55 -71
172 -117 221 -30 32 -33 34 -11 7z"/>
<path d="M2622 4140 c0 -8 4 -26 8 -40 6 -20 8 -21 8 -5 0 11 -3 29 -8 40 -5
12 -8 14 -8 5z"/>
<path d="M2642 4050 c0 -14 4 -36 8 -50 l8 -25 0 25 c0 14 -4 36 -8 50 l-8 25
0 -25z"/>
<path d="M7582 4020 c0 -14 2 -19 5 -12 2 6 2 18 0 25 -3 6 -5 1 -5 -13z"/>
<path d="M7572 3960 c0 -19 2 -27 5 -17 2 9 2 25 0 35 -3 9 -5 1 -5 -18z"/>
<path d="M2663 3935 c0 -22 2 -30 4 -17 2 12 2 30 0 40 -3 9 -5 -1 -4 -23z"/>
<path d="M7560 3812 c0 -126 22 -227 69 -320 31 -62 124 -182 141 -182 6 0 10
19 10 43 0 23 11 91 25 152 14 60 25 114 24 120 -2 23 -49 -175 -55 -234 l-7
-65 -48 52 c-101 110 -153 264 -147 441 2 55 0 101 -4 101 -5 0 -8 -49 -8
-108z"/>
<path d="M2392 3880 c0 -19 2 -27 5 -17 2 9 2 25 0 35 -3 9 -5 1 -5 -18z"/>
<path d="M2668 3828 c5 -107 9 -117 11 -25 0 48 -2 87 -6 87 -5 0 -7 -28 -5
-62z"/>
<path d="M7842 3805 c-1 -49 -4 -108 -7 -130 l-5 -40 10 40 c6 22 9 80 7 130
l-3 90 -2 -90z"/>
<path d="M2380 3795 c0 -25 3 -45 8 -45 4 0 7 20 7 45 0 25 -3 45 -7 45 -5 0
-8 -20 -8 -45z"/>
<path d="M2393 3705 c0 -22 2 -30 4 -17 2 12 2 30 0 40 -3 9 -5 -1 -4 -23z"/>
<path d="M2653 3648 c-7 -34 -10 -64 -8 -66 5 -6 28 104 24 117 -3 7 -10 -16
-16 -51z"/>
<path d="M2401 3650 c0 -8 10 -58 23 -110 13 -52 24 -86 25 -75 0 11 -10 61
-23 110 -13 50 -24 83 -25 75z"/>
<path d="M2601 3503 c-18 -37 -54 -91 -79 -121 l-47 -55 -6 29 c-6 26 -7 25
-7 -11 l-1 -40 58 62 c52 56 131 186 120 198 -3 2 -20 -26 -38 -62z"/>
<path d="M2656 3430 c-9 -23 -15 -44 -12 -47 2 -2 9 12 16 31 7 21 16 33 22
30 6 -4 35 -57 64 -118 29 -61 53 -106 54 -101 0 13 -94 205 -112 229 -14 18
-16 16 -32 -24z"/>
<path d="M7537 3435 c-19 -41 -14 -48 6 -8 l14 27 17 -30 c10 -16 14 -20 11
-9 -4 11 -10 28 -12 38 -8 26 -17 21 -36 -18z"/>
<path d="M2450 3415 c0 -14 4 -25 9 -25 4 0 6 11 3 25 -2 14 -6 25 -8 25 -2 0
-4 -11 -4 -25z"/>
<path d="M7476 3318 c-45 -101 -59 -138 -55 -142 2 -2 25 45 50 105 52 122 56
148 5 37z"/>
<path d="M2070 3354 c2 -111 45 -307 95 -425 70 -166 204 -318 361 -411 88
-51 303 -153 310 -145 2 2 -25 78 -61 168 -110 273 -178 382 -345 550 -99 99
-234 210 -332 274 l-28 17 0 -28z"/>
<path d="M8045 3298 c-196 -146 -358 -318 -460 -487 -46 -77 -197 -441 -182
-441 20 0 296 138 353 177 230 156 356 379 399 700 17 126 17 133 8 133 -5 0
-57 -37 -118 -82z"/>
<path d="M2615 3315 c-9 -31 -14 -62 -12 -68 2 -6 11 18 20 53 20 80 15 91 -8
15z"/>
<path d="M7602 3350 c0 -8 6 -31 13 -50 7 -19 13 -28 13 -20 0 8 -6 31 -13 50
-7 19 -13 28 -13 20z"/>
<path d="M7632 3240 c0 -14 2 -19 5 -12 2 6 2 18 0 25 -3 6 -5 1 -5 -13z"/>
<path d="M2593 3195 c0 -22 2 -30 4 -17 2 12 2 30 0 40 -3 9 -5 -1 -4 -23z"/>
<path d="M2804 3195 c3 -11 15 -54 25 -95 11 -41 20 -66 20 -55 1 23 -35 155
-45 164 -4 3 -4 -3 0 -14z"/>
<path d="M7635 3117 c-1 -76 -5 -103 -27 -157 -15 -36 -20 -56 -12 -45 28 37
54 145 54 221 0 41 -3 74 -7 74 -5 0 -8 -42 -8 -93z"/>
<path d="M7400 3110 c-7 -28 -10 -53 -8 -55 3 -3 10 18 16 47 7 28 11 53 8 55
-2 2 -9 -19 -16 -47z"/>
<path d="M2595 3064 c3 -47 33 -140 41 -131 3 2 -3 20 -11 40 -8 20 -19 60
-25 89 l-9 53 4 -51z"/>
<path d="M7381 2974 c1 -38 5 -82 9 -99 4 -16 5 13 2 65 -6 112 -13 133 -11
34z"/>
<path d="M2845 2970 c0 -26 3 -46 8 -43 4 2 7 22 7 43 0 21 -3 41 -7 43 -5 3
-8 -17 -8 -43z"/>
<path d="M2661 2885 c46 -82 96 -181 102 -205 7 -23 9 -21 26 25 51 138 61
170 60 189 0 12 -11 -13 -23 -54 -28 -89 -48 -140 -56 -139 -3 0 -24 40 -48
87 -24 48 -52 98 -64 112 -18 22 -17 20 3 -15z"/>
<path d="M7542 2842 c-17 -26 -42 -72 -56 -102 -14 -30 -25 -49 -25 -41 -1 8
-3 12 -6 9 -3 -3 -2 -16 3 -29 9 -22 10 -21 22 16 11 38 54 122 88 173 8 12
12 22 9 22 -3 0 -19 -21 -35 -48z"/>
<path d="M2593 1950 c0 -25 2 -35 4 -22 2 12 2 32 0 45 -2 12 -4 2 -4 -23z"/>
</g>
</svg>
